<?xml version="1.0" encoding="UTF-8" standalone="no"?>
<!-- Created with Inkscape (http://www.inkscape.org/) -->

<svg
   width="23.999996mm"
   height="25.63324mm"
   viewBox="0 0 23.999996 25.63324"
   version="1.1"
   id="svg1"
   xml:space="preserve"
   xmlns="http://www.w3.org/2000/svg"
   xmlns:svg="http://www.w3.org/2000/svg"><defs
     id="defs1" /><g
     id="layer1"
     transform="translate(-46.717458,-218.1283)"><g
       id="g1"
       transform="matrix(0.51492157,0,0,0.51492157,4.7115188,154.48525)"><path
         style="fill:#e4eaf4"
         d="m 97.452755,169.12729 -7.534005,-4.25116 -0.595313,-0.38515 -0.595312,-0.38516 v -3.85866 -3.85867 l 0.463021,0.17453 0.463021,0.17454 7.540625,4.26237 7.540628,4.26237 0.29253,10e-4 0.29254,0.001 3.87465,-2.30101 3.87465,-2.30102 -7e-4,-9.58318 -7e-4,-9.58319 -3.30218,-1.98438 -3.30218,-1.98437 -0.002,-0.1323 -0.002,-0.13229 3.17454,-1.80499 3.17454,-1.80499 0.34675,0.0852 0.34675,0.0852 3.34996,1.98437 3.34997,1.98438 0.006,13.28235 0.006,13.28235 -7.53433,4.51088 -7.53433,4.51088 h -0.0791 -0.0791 z m 3.272785,-7.32128 -4.008988,-2.3182 -7.561375,-4.36562 -7.561376,-4.36563 0.01042,-8.99583 0.01042,-8.99583 7.666941,-4.36563 7.666941,-4.36562 0.473341,-0.21805 0.473342,-0.21804 3.390714,2.04347 3.39072,2.04347 -0.63207,0.34114 -0.63207,0.34114 -7.408331,4.20839 -7.408334,4.2084 v 4.9667 4.96671 l 7.805209,4.61794 7.805206,4.61794 0.33296,0.143 0.33297,0.14299 3.54157,-2.01354 3.54157,-2.01354 h 0.16036 0.16036 v 3.81059 3.81059 l -3.40278,2.00443 -3.40279,2.00442 -0.36797,0.14121 -0.36798,0.1412 z m 20.27309,-15.87809 -0.009,-9.19427 -3.78082,-2.18282 -3.78081,-2.18281 h -0.3498 -0.3498 l -8.15807,4.66148 -8.158071,4.66147 0.167931,4.06978 0.167931,4.06977 h -0.307384 -0.307384 l -3.305914,-1.88402 -3.305914,-1.88402 0.0023,-4.26754 0.0023,-4.26754 11.565875,-6.59254 11.56588,-6.59253 h 0.30072 0.30072 l 7.44902,4.33932 7.44902,4.33933 -0.0695,9.22858 -0.0695,9.22858 -3.30729,1.81813 -3.30729,1.81812 -0.19844,0.004 -0.19844,0.004 z m -19.76672,6.86761 -3.503507,-2.03897 0.0043,-4.36562 0.0043,-4.36563 3.443017,-1.91823 3.44302,-1.91823 0.32077,0.0109 0.32076,0.0109 3.3073,1.94769 3.30729,1.94769 0.0712,4.32528 0.0712,4.32528 -3.24619,1.90201 -3.24618,1.90201 -0.39688,0.13696 -0.39687,0.13696 z"
         id="path48" /><path
         style="fill:#dde2ef"
         d="m 96.930208,168.81378 -8.069791,-4.56399 -0.0734,-3.93343 -0.0734,-3.93344 0.465734,0.17872 0.465734,0.17872 7.71325,4.3593 7.713245,4.35929 3.9991,-2.40694 3.9991,-2.40695 -6.6e-4,-9.57446 -6.6e-4,-9.57445 -3.29854,-1.98438 -3.29853,-1.98437 -0.006,-0.1323 -0.006,-0.13229 3.17454,-1.80499 3.17454,-1.80499 0.34675,0.0852 0.34675,0.0852 3.34996,1.98437 3.34997,1.98438 0.006,13.27167 0.006,13.27168 -7.54723,4.52155 -7.54723,4.52156 -0.0595,-3.4e-4 -0.0595,-3.3e-4 z m -3.761069,-11.37449 -11.566279,-6.68273 0.004,-8.99583 0.004,-8.99583 7.949998,-4.49792 7.949997,-4.49792 h 0.304983 0.304983 l 3.106309,1.85209 3.10632,1.85208 -0.0725,0.2252 -0.0725,0.22519 -7.79629,4.43162 -7.796289,4.43162 v 4.96993 4.96992 l 7.043394,4.16158 7.043395,4.16158 1.07637,0.60496 1.07637,0.60495 3.55998,-2.024 3.55998,-2.02401 h 0.16036 0.16036 v 3.81059 3.81059 l -3.40278,2.00443 -3.40279,2.00442 -0.36753,0.14011 -0.36752,0.14011 z m 27.845051,-11.48263 0.0196,-9.16552 -3.9863,-2.32686 -3.98631,-2.32685 -8.34257,4.79229 -8.342565,4.79228 0.07862,4.05464 0.07862,4.05464 -0.199815,-3.8e-4 -0.199815,-3.8e-4 -3.305914,-1.88402 -3.305914,-1.88402 0.0018,-4.26754 0.0018,-4.26754 11.656153,-6.61459 11.65615,-6.61458 0.28269,0.0776 0.28268,0.0776 7.37723,4.28399 7.37722,4.28399 -0.0695,9.22834 -0.0695,9.22835 -3.30729,1.81813 -3.30729,1.81812 -0.20482,0.004 -0.20482,0.004 z m -19.77944,6.8375 -3.500663,-2.0376 0.0055,-4.36562 0.0055,-4.36563 3.436373,-1.91823 3.43637,-1.91823 0.32335,0.0109 0.32335,0.0109 3.3073,1.94769 3.30729,1.94769 0.0723,4.32965 0.0723,4.32966 -3.53611,2.04615 -3.5361,2.04614 -0.10803,-0.0129 -0.10803,-0.0129 z"
         id="path47" /><path
         style="fill:#d5d9e8"
         d="m 96.930208,168.80841 -8.069791,-4.56378 -0.0734,-3.93085 -0.0734,-3.93086 0.447062,0.17156 0.447061,0.17155 7.166961,4.05851 7.166959,4.0585 0.57898,0.29952 0.57898,0.29952 3.98508,-2.39851 3.98508,-2.39851 -6.6e-4,-9.57446 -6.6e-4,-9.57445 -3.29854,-1.98438 -3.29853,-1.98437 -6.3e-4,-0.1323 -6.3e-4,-0.13229 3.22945,-1.82152 3.22944,-1.82153 1.32715,0.70168 1.32715,0.70169 2.24896,1.39268 2.24896,1.39268 0.0686,13.25034 0.0686,13.25035 -7.44816,4.46848 -7.44816,4.46849 -0.16104,0.063 -0.16103,0.063 z m -3.175,-11.06223 -10.980208,-6.36328 -0.598822,-0.38772 -0.598822,-0.38771 0.06966,-8.90159 0.06965,-8.9016 8.026961,-4.59956 8.026962,-4.59956 3.277841,1.93403 3.27784,1.93404 -0.0678,0.22174 -0.0678,0.22173 -7.797446,4.43342 -7.797442,4.43343 v 4.97817 4.97816 l 7.9375,4.7061 7.937498,4.70609 0.28323,0.0142 0.28324,0.0142 3.28864,-1.885 3.28864,-1.885 0.33073,-0.12768 0.33073,-0.12768 v 3.8332 3.8332 l -3.66621,2.14823 -3.66621,2.14823 -0.1041,-0.004 -0.1041,-0.004 z m 27.289402,-11.72721 0.095,-9.18197 -4.03838,-2.35001 -4.03838,-2.35001 -8.34349,4.77979 -8.343487,4.77979 0.07874,4.07404 0.07874,4.07403 -0.27814,-0.0732 -0.27814,-0.0732 -3.227589,-1.83578 -3.227589,-1.83579 0.0088,-4.24963 0.0088,-4.24963 11.642795,-6.61459 11.64279,-6.61458 0.27064,0.0715 0.27065,0.0715 7.39208,4.29415 7.39208,4.29415 -0.0659,9.21443 -0.0659,9.21443 -3.175,1.73141 -3.175,1.73142 -0.35956,0.13988 -0.35955,0.13988 z m -19.80977,6.77275 -3.500577,-2.03516 0.06099,-4.36022 0.06099,-4.36022 3.307287,-1.90206 3.30729,-1.90207 0.34265,-0.0216 0.34265,-0.0216 3.42767,2.01137 3.42766,2.01136 v 4.27759 4.27758 l -3.5418,2.04543 -3.54179,2.04542 -0.0962,-0.0154 -0.0962,-0.0154 z"
         id="path46" /><path
         style="fill:#d0d7e9"
         d="m 96.930208,168.80841 -8.069791,-4.56378 -0.0734,-3.93085 -0.0734,-3.93086 0.438021,0.16809 0.438022,0.16808 6.911417,3.9246 6.911413,3.92459 0.84555,0.4357 0.84555,0.43571 3.9831,-2.39732 3.98309,-2.39731 v -9.57908 -9.57909 l -3.29776,-1.97975 -3.29777,-1.97974 -0.002,-0.1323 -0.002,-0.13229 3.22945,-1.82152 3.22944,-1.82153 1.32715,0.70168 1.32715,0.70169 2.24896,1.39268 2.24896,1.39268 0.0686,13.25034 0.0686,13.25035 -7.44816,4.46848 -7.44816,4.46849 -0.16104,0.063 -0.16103,0.063 z m -3.704166,-11.37628 -11.509375,-6.67619 v -8.97275 -8.97275 l 8.031838,-4.59975 8.031839,-4.59974 3.272966,1.93114 3.27296,1.93114 -0.0661,0.21674 -0.0661,0.21675 -7.799101,4.42463 -7.799106,4.42463 v 4.99544 4.99543 l 7.9375,4.70299 7.937497,4.70299 0.30658,0.0138 0.30658,0.0138 3.45336,-1.98437 3.45336,-1.98438 h 0.14267 0.14266 v 3.8049 3.80489 l -3.66621,2.14823 -3.66621,2.14823 -0.1041,-0.005 -0.1041,-0.005 z m 27.932738,-11.35549 0.19051,-9.11714 -4.13266,-2.41452 -4.13266,-2.41453 -8.35414,4.77611 -8.354126,4.7761 0.07882,4.08099 0.07881,4.08098 -0.27814,-0.0732 -0.27814,-0.0732 -3.233887,-1.83935 -3.233887,-1.83935 0.07244,-4.24607 0.07244,-4.24606 11.64166,-6.65709 11.64167,-6.65708 1.22502,0.70396 1.22503,0.70396 6.3788,3.70416 6.3788,3.70417 -0.0632,9.21443 -0.0632,9.21443 -3.175,1.73141 -3.175,1.73142 -0.35024,0.1363 -0.35024,0.13631 z m -19.86295,6.70956 -3.43958,-2.04891 v -4.34827 -4.34827 l 3.40894,-1.92595 3.40893,-1.92595 h 0.24101 0.241 l 3.42767,2.01137 3.42766,2.01136 -0.004,4.27249 -0.004,4.27249 -3.5284,2.05052 -3.5284,2.05052 -0.10592,-0.0112 -0.10592,-0.0112 z"
         id="path45" /><path
         style="fill:#cbd7ea"
         d="m 96.930208,168.80147 -8.069791,-4.56787 -0.0734,-3.92534 -0.0734,-3.92534 0.391816,0.15036 0.391816,0.15035 7.089914,4.01071 7.089907,4.01071 0.6742,0.39344 0.6742,0.39344 3.95601,-2.37804 3.95601,-2.37804 0.0693,-9.62254 0.0693,-9.62254 -3.30096,-1.98169 -3.30096,-1.98168 -0.002,-0.1323 -0.002,-0.13229 3.22695,-1.8201 3.22696,-1.82011 1.06506,0.57103 1.06506,0.57103 2.51354,1.51366 2.51354,1.51366 0.0686,13.2586 0.0686,13.2586 -7.44816,4.46848 -7.44816,4.46849 -0.16104,0.0616 L 105,173.36935 Z M 93.226042,157.42965 81.716667,150.7518 v -8.96693 -8.96694 l 8.039782,-4.59877 8.039783,-4.59878 3.265018,1.92643 3.26502,1.92642 -0.063,0.20744 -0.063,0.20744 -7.802209,4.43699 -7.802208,4.43699 v 4.9911 4.99111 l 7.9375,4.70668 7.937497,4.70669 0.30658,0.0114 0.30658,0.0114 3.45336,-1.98437 3.45336,-1.98438 h 0.14267 0.14266 v 3.79283 3.79282 l -3.6619,2.1603 -3.66189,2.1603 -0.10842,-0.005 -0.10841,-0.005 z m 27.833108,-11.4592 0.0804,-9.15174 -4.03789,-2.34605 -4.03789,-2.34605 -8.34401,4.78158 -8.344015,4.78158 0.07878,4.07743 0.07878,4.07743 -0.27814,-0.0732 -0.27814,-0.0732 -3.233887,-1.83935 -3.233887,-1.83935 0.07244,-4.24607 0.07244,-4.24606 11.641659,-6.65401 11.64167,-6.654 1.21953,0.70088 1.21954,0.70088 6.38194,3.70416 6.38195,3.70417 0.005,9.16986 0.005,9.16986 -3.43145,1.87649 -3.43145,1.8765 h -0.15471 -0.15471 z m -19.76332,6.81556 -3.43958,-2.03414 v -4.35556 -4.35556 l 3.40894,-1.92595 3.40893,-1.92595 h 0.20714 0.20714 l 3.46153,2.01147 3.46153,2.01146 -0.004,4.27239 -0.004,4.27239 -3.5284,2.05052 -3.5284,2.05052 -0.10592,-0.0187 -0.10592,-0.0187 z"
         id="path44" /><path
         style="fill:#ccd2e5"
         d="m 96.996354,168.82596 -8.003646,-4.53847 v -3.93681 -3.93681 l 0.198438,0.11872 0.198437,0.11871 7.787824,4.40441 7.787823,4.40442 0.28197,-0.12273 0.28197,-0.12273 3.70416,-2.23707 3.70417,-2.23706 0.0693,-9.62489 0.0693,-9.62488 -3.30096,-1.98169 -3.30096,-1.98168 -0.002,-0.1323 -0.002,-0.13229 3.22695,-1.8201 3.22696,-1.82011 1.06506,0.57103 1.06506,0.57103 2.51354,1.51366 2.51354,1.51366 0.0686,13.2586 0.0686,13.2586 -7.44816,4.46848 -7.44816,4.46849 -0.16104,0.0591 -0.16103,0.0591 z m -3.770312,-11.41107 -11.509375,-6.68755 v -8.9547 -8.95471 l 8.039782,-4.59877 8.039783,-4.59878 3.265018,1.92643 3.26502,1.92642 -0.063,0.20744 -0.063,0.20744 -7.802209,4.43699 -7.802208,4.43699 v 5.00566 5.00567 l 7.9375,4.69524 7.937497,4.69525 0.30658,0.008 0.30658,0.008 3.45336,-1.98437 3.45336,-1.98438 h 0.14267 0.14266 v 3.79283 3.79282 l -3.6619,2.1603 -3.66189,2.1603 -0.10842,-0.008 -0.10841,-0.008 z m 27.833108,-11.44444 0.0804,-9.15174 -4.03789,-2.34605 -4.03789,-2.34605 -8.33138,4.77434 -8.331378,4.77434 v 4.07762 4.07761 H 96.2897 96.178358 l -2.600637,-1.49342 -2.600638,-1.49342 -0.734207,-0.51367 -0.734207,-0.51368 0.07275,-4.14446 0.07275,-4.14447 11.641661,-6.65401 11.64167,-6.654 1.21953,0.70088 1.21954,0.70088 6.38194,3.70416 6.38195,3.70417 0.005,9.16986 0.005,9.16986 -3.43145,1.87649 -3.43145,1.8765 h -0.15471 -0.15471 z m -19.76332,6.80784 -3.43958,-2.03852 v -4.34951 -4.34951 l 3.40894,-1.92595 3.40893,-1.92595 h 0.20714 0.20714 l 3.46153,2.01147 3.46153,2.01146 -0.004,4.27239 -0.004,4.27239 -3.5284,2.05052 -3.5284,2.05052 -0.10592,-0.0204 -0.10592,-0.0204 z"
         id="path43" /><path
         style="fill:#bfcde6"
         d="m 96.996354,168.82596 -8.003646,-4.53847 v -3.93681 -3.93681 l 0.198438,0.11872 0.198437,0.11871 7.770871,4.39482 7.770876,4.39482 0.16662,-0.009 0.16663,-0.009 3.83646,-2.32267 3.83646,-2.32268 0.0693,-9.64368 0.0693,-9.64367 -1.92142,-1.17631 -1.92143,-1.17632 -1.41934,-0.8984 -1.41935,-0.89841 3.2468,-1.82458 3.24679,-1.82458 h 0.14195 0.14194 l 3.38842,2.0148 3.38842,2.01479 -0.006,13.39719 -0.006,13.39718 -7.3175,4.36562 -7.31749,4.36563 -0.15064,0.0591 -0.15063,0.0591 z m -3.770312,-11.41107 -11.509375,-6.68755 v -8.95839 -8.95838 l 8.046676,-4.591 8.046676,-4.591 3.258121,1.92233 3.25813,1.92233 -0.063,0.20743 -0.063,0.20743 -7.802206,4.42812 -7.802211,4.42811 v 5.01455 5.01455 l 7.9375,4.69524 7.937497,4.69525 0.30658,0.008 0.30658,0.008 3.45336,-1.98437 3.45336,-1.98438 h 0.14267 0.14266 v 3.78037 3.78037 l -3.67263,2.17276 -3.67263,2.17275 -0.0977,-0.008 -0.0977,-0.008 z m 27.832588,-11.41506 0.081,-9.17632 -4.03721,-2.3674 -4.03722,-2.3674 -8.26591,4.75311 -8.265907,4.75311 -0.07286,4.11779 -0.07286,4.1178 h -0.104624 -0.104623 l -2.600637,-1.49342 -2.600638,-1.49342 -0.734207,-0.51367 -0.734207,-0.51368 0.07275,-4.13436 0.07275,-4.13436 11.641663,-6.6565 11.64167,-6.6565 1.20452,0.69327 1.20452,0.69327 6.39809,3.70416 6.39808,3.70417 0.004,6.11002 0.004,6.11002 -0.16966,3.15536 -0.16966,3.15535 -3.17476,1.71483 -3.17475,1.71484 -0.24227,0.0931 -0.24226,0.0931 z m -19.7628,6.77846 -3.43958,-2.03852 v -4.34198 -4.34197 l 2.91042,-1.6564 2.91041,-1.65639 0.68502,-0.29155 0.68503,-0.29155 3.48216,2.03831 3.48217,2.0383 -0.005,4.26001 -0.005,4.26001 -3.55409,2.05052 -3.55409,2.05052 -0.079,-0.0204 -0.079,-0.0204 z"
         id="path42" /><path
         style="fill:#b8c7e2"
         d="m 96.996354,168.8143 -8.003646,-4.54041 v -3.92554 -3.92555 l 1.124479,0.6489 1.12448,0.64889 6.833331,3.86018 6.833332,3.86017 0.17813,-0.009 0.17812,-0.009 3.83646,-2.32267 3.83646,-2.32268 0.0694,-9.67445 0.0694,-9.67444 -1.92146,-1.13882 -1.92146,-1.13882 -1.4103,-0.89935 -1.41031,-0.89935 3.23712,-1.83036 3.23712,-1.83036 h 0.14258 0.14258 l 3.38842,2.0148 3.38842,2.01479 -0.006,13.39719 -0.006,13.39718 -7.3175,4.36562 -7.31749,4.36563 -0.15064,0.0543 -0.15063,0.0543 z m -3.770312,-11.40853 -11.509375,-6.68761 v -8.94564 -8.94564 l 8.044093,-4.60152 8.044094,-4.60153 3.252156,1.9247 3.25216,1.9247 -0.0515,0.19439 -0.0515,0.1944 -7.805208,4.43934 -7.805209,4.43933 -0.05814,5.02356 -0.05814,5.02356 8.025281,4.69636 8.025286,4.69635 h 0.27694 0.27694 l 3.45336,-1.98437 3.45336,-1.98438 h 0.14267 0.14266 v 3.78037 3.78037 l -3.67263,2.17276 -3.67263,2.17275 -0.0977,-0.0123 -0.0977,-0.0123 z m 27.832588,-11.40594 0.081,-9.17632 -4.03506,-2.36615 -4.03507,-2.36614 -8.26806,4.74067 -8.268057,4.74066 -0.132291,4.12731 -0.132292,4.12731 -3.175,-1.81386 -3.175,-1.81386 -0.232636,-4.16009 -0.232636,-4.16008 0.364928,-0.33608 0.364927,-0.33608 11.244787,-6.40938 11.2448,-6.40938 0.17049,-0.0451 0.17049,-0.0451 7.56148,4.36562 7.56148,4.36563 0.007,6.11002 0.007,6.11002 -0.16966,3.15536 -0.16966,3.15535 -3.17476,1.71483 -3.17475,1.71484 -0.24227,0.0931 -0.24226,0.0931 z m -19.7628,6.76421 -3.43958,-2.04424 v -4.33199 -4.33199 l 2.91042,-1.6564 2.91041,-1.65639 0.67395,-0.28696 0.67395,-0.28696 3.49324,2.03269 3.49324,2.03269 -0.005,4.26104 -0.005,4.26103 -3.55409,2.05052 -3.55409,2.05052 -0.079,-0.0246 -0.079,-0.0247 z"
         id="path41" /><path
         style="fill:#bec5de"
         d="m 96.996354,168.80589 -8.003646,-4.54094 v -3.9315 -3.9315 l 0.859896,0.51906 0.859896,0.51906 7.084334,4.00043 7.084336,4.00044 0.19171,-0.009 0.1917,-0.009 3.83646,-2.32267 3.83646,-2.32268 0.0694,-9.67445 0.0694,-9.67444 -1.92146,-1.13882 -1.92146,-1.13882 -1.4103,-0.89935 -1.41031,-0.89935 3.23712,-1.83036 3.23712,-1.83036 h 0.14258 0.14258 l 3.38842,2.0148 3.38842,2.01479 -0.006,13.39719 -0.006,13.39718 -7.3175,4.36562 -7.31749,4.36563 -0.15064,0.0503 -0.15063,0.0503 z m -3.770312,-11.40875 -11.509375,-6.69561 v -8.93732 -8.93733 l 8.044093,-4.60152 8.044094,-4.60153 3.253316,1.9247 3.25332,1.9247 0.0135,0.15852 0.0135,0.15852 -8.06979,4.5864 -8.069792,4.58639 v 4.80793 4.80792 l 8.297567,4.88522 8.297565,4.88522 3.54254,-2.05549 3.54254,-2.05549 0.19843,-0.0133 0.19844,-0.0133 v 3.78037 3.78037 l -3.67263,2.17276 -3.67263,2.17275 -0.0977,-0.0126 -0.0977,-0.0126 z m 27.832588,-11.39731 0.081,-9.17632 -4.03506,-2.36615 -4.03507,-2.36614 -8.26806,4.74067 -8.268057,4.74066 -0.132291,4.12731 -0.132292,4.12731 -3.175,-1.81386 -3.175,-1.81386 -0.232636,-4.16009 -0.232636,-4.16008 0.364928,-0.33608 0.364927,-0.33608 11.244787,-6.40938 11.2448,-6.40938 0.17049,-0.0451 0.17049,-0.0451 7.56148,4.36562 7.56148,4.36563 0.007,6.11002 0.007,6.11002 -0.16966,3.15536 -0.16966,3.15535 -3.17476,1.71483 -3.17475,1.71484 -0.24227,0.0931 -0.24226,0.0931 z m -19.7628,6.76421 -3.43958,-2.04424 v -4.33199 -4.33199 l 2.91042,-1.6564 2.91041,-1.65639 0.67395,-0.28696 0.67395,-0.28696 3.49324,2.03269 3.49324,2.03269 -0.005,4.26104 -0.005,4.26103 -3.55409,2.05052 -3.55409,2.05052 -0.079,-0.0246 -0.079,-0.0247 z"
         id="path40" /><path
         style="fill:#b9c0dc"
         d="m 96.996354,168.79078 -8.003646,-4.52583 v -3.9315 -3.9315 l 0.859896,0.51906 0.859896,0.51906 7.084334,4.00043 7.084336,4.00044 0.19171,-0.009 0.1917,-0.009 3.83646,-2.32267 3.83646,-2.32268 0.0694,-9.66364 0.0694,-9.66364 -2.31832,-1.41051 -2.31832,-1.41052 -1.0176,-0.6361 -1.0176,-0.6361 3.24129,-1.83272 3.24129,-1.83272 h 0.14258 0.14258 l 3.39083,2.01623 3.39082,2.01623 -0.0686,13.38199 -0.0686,13.38199 -6.74688,4.0625 -6.74687,4.06249 -0.66146,0.35212 L 105,173.31661 Z m -3.770312,-11.39364 -11.509375,-6.69561 v -8.92293 -8.92294 l 8.027292,-4.60767 8.027293,-4.60767 3.159958,1.8895 3.15996,1.8895 0.1119,0.18105 0.1119,0.18106 -8.058008,4.58898 -8.058004,4.58898 v 4.80976 4.80976 l 8.311423,4.89338 8.311419,4.89338 3.60184,-2.06594 3.60184,-2.06593 -0.0732,3.87628 -0.0731,3.87628 -3.43959,2.0529 -3.43958,2.0529 -0.13229,2.9e-4 -0.13229,2.9e-4 z m 27.979688,-2.48233 -0.0662,-0.1895 v -8.96021 -8.96022 l -4.02524,-2.35912 -4.02525,-2.35913 -8.27788,4.73541 -8.277877,4.73541 -0.132291,4.13486 -0.132292,4.13486 -3.175,-1.81396 -3.175,-1.81395 -0.22863,-4.00029 -0.228631,-4.00029 0.13507,-0.35198 0.13507,-0.35199 7.369602,-4.20789 7.369599,-4.2079 4.25403,-2.41323 4.25403,-2.41323 7.51993,4.38851 7.51993,4.38851 0.0838,5.02708 0.0838,5.02709 -0.17623,4.25726 -0.17622,4.25726 -1.36276,0.68982 -1.36276,0.68982 -1.91823,1.06325 -1.91823,1.06325 z m -19.9099,-2.15043 -3.43958,-2.04391 -0.07263,-4.26598 -0.07263,-4.26597 1.792418,-1.03969 1.792412,-1.03969 1.85209,-0.99051 1.85208,-0.99052 3.50573,2.05319 3.50573,2.05319 -0.005,4.26104 -0.005,4.26103 -3.55409,2.05052 -3.55409,2.05052 -0.079,-0.0246 -0.079,-0.0247 z"
         id="path39" /><path
         style="fill:#afc0de"
         d="m 96.996354,168.79078 -8.003646,-4.52583 v -3.9315 -3.9315 l 0.859896,0.51906 0.859896,0.51906 7.084334,4.00043 7.084336,4.00044 0.19171,-0.009 0.1917,-0.009 3.83646,-2.32267 3.83646,-2.32268 0.0694,-9.67692 0.0694,-9.67692 -3.17823,-1.92021 -3.17823,-1.92021 v -0.19814 -0.19814 l 2.71198,-1.52904 2.71198,-1.52903 0.42364,-0.25772 0.42365,-0.25773 3.48137,2.05072 3.48137,2.05072 -0.0686,13.38655 -0.0686,13.38656 -6.74688,4.0625 -6.74687,4.06249 -0.66146,0.35212 L 105,173.31661 Z m -3.770312,-11.39364 -11.509375,-6.69561 v -8.9219 -8.92191 l 8.037505,-4.60259 8.037505,-4.60259 3.149753,1.88339 3.14974,1.88339 0.11349,0.18362 0.11348,0.18362 -8.05959,4.57429 -8.059592,4.57428 v 4.82189 4.82189 l 8.311423,4.89338 8.311419,4.89338 3.60184,-2.06594 3.60184,-2.06593 -0.0732,3.86454 -0.0731,3.86453 -3.43959,2.06541 -3.43958,2.06541 -0.13229,-4.7e-4 -0.13229,-4.8e-4 z m 27.983078,-11.46735 -0.0695,-9.12969 -4.03684,-2.36352 -4.03684,-2.36353 -8.26628,4.74725 -8.266287,4.74725 -0.132291,4.12981 -0.132292,4.12981 -3.175,-1.81386 -3.175,-1.81386 -0.232636,-4.16009 -0.232636,-4.16008 0.364928,-0.3382 0.364927,-0.33819 11.398387,-6.46951 11.39838,-6.46951 7.51933,4.38452 7.51932,4.38452 0.0838,5.02537 0.0838,5.02537 -0.17523,4.23333 -0.17522,4.23333 -3.27859,1.75459 -3.2786,1.75458 z m -19.91329,6.83276 -3.43958,-2.04275 v -4.31499 -4.31499 l 3.43958,-1.9504 3.43959,-1.95041 0.27302,0.0661 0.27302,0.0661 3.365,1.97348 3.365,1.97348 -0.009,4.24423 -0.009,4.24422 -3.45027,1.98438 -3.45026,1.98437 -0.17906,0.04 -0.17906,0.04 z"
         id="path38" /><path
         style="fill:#abbede"
         d="m 96.996354,168.78598 -8.003646,-4.52314 v -3.93045 -3.93044 l 0.859896,0.52245 0.859896,0.52245 7.087223,3.99704 7.087227,3.99705 0.18881,-0.009 0.18882,-0.009 3.83646,-2.32267 3.83646,-2.32268 0.0694,-9.67692 0.0694,-9.67692 -3.17823,-1.92021 -3.17823,-1.92021 v -0.19814 -0.19814 l 2.71198,-1.52904 2.71198,-1.52903 0.42364,-0.25772 0.42365,-0.25773 3.48137,2.05072 3.48137,2.05072 -0.0686,13.38655 -0.0686,13.38656 -6.74688,4.0625 -6.74687,4.06249 -0.66146,0.34837 L 105,173.30912 Z m -1.785937,-10.24342 -9.525,-5.5479 -2.054034,-1.19077 -2.054033,-1.19076 0.06966,-8.8778 0.06966,-8.8778 8.037505,-4.6025 8.037505,-4.60249 3.14975,1.88339 3.14974,1.88339 0.11327,0.18327 0.11326,0.18326 -8.059368,4.5708 -8.059371,4.57081 v 4.82779 4.82779 l 8.306067,4.89439 8.306062,4.89438 3.6072,-2.06901 3.60719,-2.069 -0.0732,3.86454 -0.0731,3.86453 -3.43959,2.06541 -3.43958,2.06541 -0.13229,-0.002 -0.13229,-0.002 z m 25.998703,-12.61277 -0.0695,-9.12969 -4.04363,-2.3675 -4.04363,-2.3675 -8.25949,4.7507 -8.259497,4.7507 -0.132291,4.13034 -0.132292,4.13033 -3.175,-1.81458 -3.175,-1.81458 -0.132292,-4.30704 -0.132291,-4.30705 0.529166,-0.33247 0.529167,-0.33246 11.13387,-6.32752 11.13386,-6.32752 7.51926,4.38448 7.51926,4.38448 0.0838,5.02537 0.0838,5.02537 -0.17523,4.23333 -0.17522,4.23333 -3.27859,1.75459 -3.2786,1.75458 z m -19.80567,6.83573 -3.5472,-2.07262 v -4.30154 -4.30154 l 3.43958,-1.94802 3.43959,-1.94803 0.39687,0.14586 0.39688,0.14586 3.24114,1.89131 3.24115,1.89131 -0.006,4.24423 -0.006,4.24422 -2.44183,1.38652 -2.44182,1.38652 -1.08301,0.65426 -1.083,0.65427 z"
         id="path37" /><path
         style="fill:#aeb7d6"
         d="m 96.998349,168.7792 -8.001651,-4.52889 -0.002,-3.89135 -0.002,-3.89135 2.71198,1.53694 2.711979,1.53694 5.217428,2.94972 5.217425,2.94973 0.20653,-0.009 0.20653,-0.009 3.83646,-2.32267 3.83646,-2.32268 0.0694,-9.67692 0.0694,-9.67692 -3.17823,-1.92021 -3.17823,-1.92021 v -0.19814 -0.19814 l 2.71198,-1.52904 2.71198,-1.52903 0.42364,-0.25772 0.42365,-0.25773 3.48137,2.05072 3.48137,2.05072 -0.0686,13.38655 -0.0686,13.38656 -6.74688,4.0625 -6.74687,4.06249 -0.66146,0.34786 L 105,173.30808 Z m -3.772307,-11.39588 -11.509375,-6.69833 v -8.91364 -8.91363 l 8.037505,-4.60259 8.037505,-4.60259 3.149753,1.88339 3.14974,1.88339 0.11327,0.18327 0.11326,0.18326 -8.059371,4.5708 -8.059371,4.57081 v 4.83443 4.83444 l 8.260137,4.85824 8.260135,4.85824 0.23124,-0.0744 0.23123,-0.0744 3.4219,-1.96629 3.42189,-1.9663 -0.0732,3.86571 -0.0732,3.8657 -3.43959,2.06541 -3.43958,2.06541 -0.13229,-0.006 -0.13229,-0.006 z m 27.983078,-11.45353 -0.0695,-9.12969 -4.04363,-2.3675 -4.04363,-2.3675 -8.25949,4.7507 -8.259497,4.7507 -0.132291,4.11668 -0.132292,4.11667 -3.241146,-1.85762 -3.241146,-1.85762 v -4.31036 -4.31036 l 11.598452,-6.59905 11.59846,-6.59906 7.51769,4.38357 7.51769,4.38356 0.0838,5.02537 0.0838,5.02537 -0.17523,4.23333 -0.17522,4.23333 -3.27859,1.75459 -3.2786,1.75458 z m -19.79468,6.83237 -3.55819,-2.06287 v -4.30473 -4.30474 l 3.43958,-1.94802 3.43959,-1.94803 0.39687,0.14586 0.39688,0.14586 3.24114,1.89131 3.24115,1.89131 -0.006,4.24423 -0.006,4.24422 -2.44183,1.38652 -2.44182,1.38652 -1.07202,0.64771 -1.07202,0.64772 z"
         id="path36" /><path
         style="fill:#a0b6da"
         d="m 96.998349,168.7792 -8.001651,-4.52889 -0.002,-3.89135 -0.002,-3.89135 2.71198,1.53694 2.711979,1.53694 5.244948,2.96529 5.244945,2.9653 0.23283,-0.0817 0.23282,-0.0817 3.83637,-2.24896 3.83636,-2.24896 0.0124,-9.68715 0.0124,-9.68714 -3.175,-1.94656 -3.175,-1.94655 v -0.18608 -0.18607 l 3.16048,-1.7524 3.16047,-1.75239 3.45651,2.03181 3.45652,2.0318 -0.0686,13.37869 -0.0686,13.37869 -6.74688,4.0625 -6.74687,4.06249 -0.66146,0.34786 -0.6613,0.34782 z m -3.772307,-11.39578 -11.509375,-6.69824 -0.06964,-8.87257 -0.06964,-8.87256 7.984142,-4.56344 7.984142,-4.56345 0.287581,0.005 0.28758,0.005 2.778128,1.66515 2.77812,1.66516 0.33281,0.30381 0.33281,0.3038 -8.07187,4.58005 -8.071873,4.58005 v 4.83768 4.83768 l 8.260137,4.85824 8.260136,4.85824 0.23124,-0.0744 0.23123,-0.0744 3.4219,-1.96629 3.42189,-1.9663 -0.0732,3.86571 -0.0732,3.8657 -3.43959,2.06541 -3.43958,2.06541 -0.13229,-0.006 -0.13229,-0.006 z m 27.983088,-11.46378 -0.0696,-9.15144 -4.03724,-2.35753 -4.03724,-2.35753 -8.26588,4.75057 -8.265887,4.75056 -0.132291,4.12279 -0.132292,4.12279 -3.241146,-1.85762 -3.241146,-1.85762 v -4.30111 -4.30112 l 11.521542,-6.56285 11.52154,-6.56286 0.67935,0.30953 0.67935,0.30953 6.87447,4.00517 6.87446,4.00517 0.10915,0.28629 0.10914,0.28629 -0.20065,8.99115 -0.20064,8.99116 -3.23775,1.76506 -3.23775,1.76506 z m -19.79469,6.84286 -3.55819,-2.06254 -0.07261,-4.25154 -0.07261,-4.25155 3.58225,-2.03667 3.58225,-2.03667 3.10494,1.79454 3.10494,1.79455 0.46302,0.28614 0.46302,0.28613 -0.006,4.23584 -0.006,4.23583 -2.44162,1.38008 -2.44161,1.38008 -1.07202,0.65416 -1.07202,0.65415 z"
         id="path35" /><path
         style="fill:#a6b3d6"
         d="m 96.99738,168.77357 -8.00262,-4.52326 -0.001,-3.88387 -10e-4,-3.88388 6.813021,3.85195 6.813019,3.85196 1.19669,0.67092 1.1967,0.67092 4.01541,-2.35879 4.01541,-2.35879 0.0134,-9.68715 0.0134,-9.68714 -3.175,-1.94656 -3.175,-1.94655 v -0.18608 -0.18607 l 3.16048,-1.7524 3.16047,-1.75239 3.45651,2.03181 3.45652,2.0318 -0.0686,13.37869 -0.0686,13.37869 -6.74688,4.0625 -6.74687,4.06249 -0.66146,0.34223 L 105,173.29683 Z m 4.69533,-6.49165 -3.04271,-1.79404 -8.532813,-4.95246 -8.532812,-4.95246 v -8.82345 -8.82345 l 7.980648,-4.56145 7.980649,-4.56145 0.287581,0.005 0.28758,0.005 2.778127,1.66515 2.77812,1.66516 0.33281,0.30381 0.33281,0.3038 -8.071869,4.58005 -8.071873,4.58005 v 4.83954 4.83954 l 6.416146,3.78585 6.416146,3.78585 1.8767,1.10761 1.87669,1.10762 3.62042,-2.07659 3.62042,-2.07659 -0.0732,3.86454 -0.0731,3.86453 -3.43959,2.06541 -3.43958,2.06541 -0.13229,-0.009 -0.13229,-0.009 z m 19.51642,-16.36228 -0.0696,-9.15144 -4.03724,-2.35753 -4.03724,-2.35753 -8.26588,4.75057 -8.265887,4.75056 -0.132291,4.12279 -0.132292,4.12279 -3.241146,-1.85762 -3.241146,-1.85762 v -4.30111 -4.30112 l 11.521542,-6.56285 11.52154,-6.56286 0.67935,0.30953 0.67935,0.30953 6.87447,4.00517 6.87446,4.00517 0.10915,0.28629 0.10914,0.28629 -0.20065,8.99115 -0.20064,8.99116 -3.23775,1.76506 -3.23775,1.76506 z m -19.79457,6.83321 -3.55831,-2.07205 -0.07261,-4.24197 -0.07261,-4.24196 3.58225,-2.03667 3.58225,-2.03667 3.10494,1.79454 3.10494,1.79455 0.46302,0.28614 0.46302,0.28613 -0.006,4.23584 -0.006,4.23583 -2.44162,1.38008 -2.44161,1.38008 -1.0719,0.65409 -1.0719,0.65408 z"
         id="path34" /><path
         style="fill:#97afd7"
         d="m 96.99738,168.77357 -8.00262,-4.52326 -0.001,-3.88387 -10e-4,-3.88388 6.813021,3.85195 6.813019,3.85196 1.19728,0.67125 1.19728,0.67125 4.02375,-2.35912 4.02376,-2.35912 0.004,-9.70057 0.004,-9.70057 -3.17484,-1.9411 -3.17484,-1.94109 -1.6e-4,-0.1486 -1.6e-4,-0.14859 3.15605,-1.78694 3.15604,-1.78694 3.46094,2.0493 3.46094,2.0493 -0.0686,13.36622 -0.0685,13.36623 -6.74688,4.0625 -6.74687,4.06249 -0.66146,0.34223 L 105,173.29683 Z m 4.69533,-6.49165 -3.04271,-1.79404 -8.532813,-4.95246 -8.532812,-4.95246 v -8.81071 -8.8107 l 7.981228,-4.5742 7.981227,-4.57419 0.287002,0.005 0.287001,0.005 2.778127,1.66515 2.77812,1.66516 0.32712,0.29811 0.32712,0.29812 -8.000037,4.54435 -8.000033,4.54435 -0.07187,4.87755 -0.07187,4.87755 6.421869,3.78923 6.421871,3.78923 1.89131,1.11626 1.89132,1.11626 3.59879,-2.06982 3.59879,-2.06982 v 3.80024 3.80025 l -3.57156,2.12645 -3.57155,2.12645 -0.0665,-0.021 -0.0665,-0.021 z m 19.51642,-16.37326 -0.0696,-9.16242 -4.03332,-2.34181 -4.03332,-2.34181 -8.2698,4.72623 -8.269807,4.72624 -0.132291,4.14238 -0.132292,4.14238 -3.241146,-1.85762 -3.241146,-1.85762 v -4.29166 -4.29166 l 11.507242,-6.56451 11.50724,-6.56451 0.46515,0.17756 0.46516,0.17756 6.87917,3.99362 6.87916,3.99363 0.33458,0.303 0.33457,0.30301 -0.20228,9.11016 -0.20228,9.11016 -3.23775,1.76505 -3.23775,1.76506 z m -19.81455,6.83255 -3.53833,-2.06041 -0.07262,-4.24445 -0.07262,-4.24445 3.58354,-2.02276 3.58352,-2.02276 3.56669,2.06385 3.56669,2.06384 v 4.169 4.169 l -0.59531,0.38138 -0.59532,0.38137 -2.94395,1.7134 -2.94396,1.7134 z"
         id="path33" /><path
         style="fill:#92aad4"
         d="m 96.999536,168.77023 -8.000464,-4.51992 -0.0032,-3.87966 -0.0032,-3.87966 7.720831,4.36937 7.720827,4.36937 0.32909,0.12629 0.32909,0.12628 3.98414,-2.33578 3.98413,-2.33579 0.004,-9.70057 0.004,-9.70057 -3.17484,-1.9411 -3.17484,-1.94109 -1.6e-4,-0.1486 -1.6e-4,-0.14859 3.16306,-1.79091 3.16306,-1.79091 3.45391,2.07158 3.45392,2.07159 -0.0685,13.34791 -0.0685,13.34791 -6.74688,4.0625 -6.74687,4.06249 -0.66146,0.33889 L 105,173.29015 Z m -3.773494,-11.40509 -11.509375,-6.70761 -0.06962,-8.846 -0.06962,-8.846 7.984705,-4.57618 7.984706,-4.57619 0.287002,0.005 0.287001,0.005 2.778129,1.66515 2.77812,1.66516 0.32712,0.29811 0.32712,0.29812 -8.000039,4.54435 -8.000033,4.54435 -0.07188,4.8803 -0.07188,4.8803 7.744796,4.568 7.744796,4.56799 0.54141,0.35027 0.5414,0.35027 3.62578,-2.08535 3.62579,-2.08534 v 3.80024 3.80025 l -3.57156,2.12645 -3.57155,2.12645 -0.0665,-0.0226 -0.0665,-0.0226 z m 27.983088,-11.45648 -0.0696,-9.16242 -4.03332,-2.34181 -4.03332,-2.34181 -8.2698,4.72623 -8.269807,4.72624 -0.132291,4.14238 -0.132292,4.14238 -3.241146,-1.85762 -3.241146,-1.85762 v -4.29166 -4.29166 l 11.507242,-6.56451 11.50724,-6.56451 0.46515,0.17756 0.46516,0.17756 6.87917,3.99362 6.87916,3.99363 0.33458,0.303 0.33457,0.30301 -0.20228,9.11016 -0.20228,9.11016 -3.23775,1.76505 -3.23775,1.76506 z m -19.87761,6.7769 -3.607562,-2.11246 v -4.19425 -4.19425 l 3.577062,-2.01911 3.57706,-2.01911 3.56669,2.06385 3.56669,2.06384 v 4.169 4.169 l -0.59531,0.38138 -0.59532,0.38137 -2.94087,1.7116 -2.94088,1.7116 z"
         id="path32" /><path
         style="fill:#99a4cc"
         d="m 97.002144,168.77178 -7.997856,-4.52147 -0.0058,-3.87795 -0.0058,-3.87794 7.474479,4.24018 7.474483,4.24019 0.56325,0.26093 0.56325,0.26094 3.99633,-2.34296 3.99632,-2.34297 0.004,-9.70057 0.004,-9.70057 -3.17484,-1.9411 -3.17484,-1.94109 -1.6e-4,-0.1486 -1.6e-4,-0.14859 3.16306,-1.79091 3.16306,-1.79091 3.45391,2.07158 3.45392,2.07159 -0.0685,13.34791 -0.0685,13.34791 -6.74688,4.0625 -6.74687,4.06249 -0.66146,0.34044 L 105,173.29325 Z m -3.700807,-11.36208 -11.43408,-6.65314 -0.07529,-8.93557 -0.07529,-8.93558 7.915081,-4.53613 7.915082,-4.53612 0.287002,0.005 0.287001,0.005 2.778127,1.66515 2.77812,1.66516 0.32712,0.29811 0.32712,0.29812 -8.000037,4.54461 -8.000033,4.54462 v 4.92839 4.9284 l 7.408333,4.36777 7.408337,4.36777 0.81172,0.49883 0.81172,0.49884 3.62005,-2.08205 3.62005,-2.08204 v 3.80024 3.80025 l -3.57156,2.12645 -3.57155,2.12645 -0.0665,-0.0276 -0.0665,-0.0276 z m 27.907793,-11.50104 -0.0696,-9.16242 -4.03332,-2.34181 -4.03332,-2.34181 -8.2698,4.72623 -8.269807,4.72624 -0.132291,4.11952 -0.132292,4.11952 -3.241146,-1.83328 -3.241146,-1.83327 v -4.29315 -4.29314 l 11.507242,-6.56451 11.50724,-6.56451 0.46515,0.17756 0.46516,0.17756 6.87917,3.99362 6.87916,3.99363 0.33458,0.303 0.33457,0.30301 -0.20228,9.11016 -0.20228,9.11016 -3.23775,1.76505 -3.23775,1.76506 z m -19.87761,6.7769 -3.607562,-2.11246 v -4.19425 -4.19425 l 3.577062,-2.01911 3.57706,-2.01911 3.56669,2.06385 3.56669,2.06384 v 4.169 4.169 l -0.59531,0.38138 -0.59532,0.38137 -2.94087,1.7116 -2.94088,1.7116 z"
         id="path31" /><path
         style="fill:#93a0cb"
         d="m 97.002144,168.77233 -7.997856,-4.52202 -0.0058,-3.87795 -0.0058,-3.87794 7.474479,4.24018 7.474483,4.24019 0.58521,0.27094 0.58522,0.27095 4.15192,-2.47529 4.15193,-2.47528 -0.17308,-6.33668 -0.17308,-6.33668 v -3.24158 -3.24158 l -3.17484,-1.9411 -3.17484,-1.94109 -1.6e-4,-0.1486 -1.6e-4,-0.14859 3.16306,-1.79091 3.16306,-1.79091 3.45391,2.07158 3.45392,2.07159 -0.0685,13.3557 -0.0685,13.35569 -7.01146,4.18384 -7.01146,4.18384 -0.39688,0.21186 L 105,173.29435 Z m -3.700807,-11.36263 -11.43408,-6.65314 -0.07529,-8.93536 -0.07529,-8.93536 8.036411,-4.59627 8.036411,-4.59627 3.295361,1.98601 3.29537,1.986 -0.74844,0.45147 -0.74845,0.45146 -7.347951,4.16833 -7.347954,4.16833 0.07191,4.89468 0.07191,4.89468 8.069792,4.77694 8.069793,4.77694 0.28831,0.0103 0.28831,0.0103 3.31504,-1.89618 3.31504,-1.89619 h 0.16696 0.16697 v 3.69188 3.69187 l -3.59963,2.12896 -3.59963,2.12896 -0.0384,-0.0276 -0.0384,-0.0276 z m 8.022953,-4.72837 -3.600332,-2.10823 v -4.18944 -4.18944 l 3.586322,-2.02433 3.58632,-2.02434 3.55968,2.07218 3.55968,2.07217 -0.0684,4.21445 -0.0684,4.21445 -3.47728,2.03538 -3.47727,2.03537 z m 19.88491,-6.88059 -0.0696,-9.05687 -4.03303,-2.34783 -4.03303,-2.34783 -8.27009,4.73626 -8.270097,4.73627 -0.132291,4.11669 -0.132292,4.1167 -3.241146,-1.83328 -3.241146,-1.83327 v -4.2959 -4.2959 l 11.522822,-6.55577 11.52283,-6.55578 0.41662,0.15987 0.41663,0.15988 6.91211,4.0031 6.91211,4.0031 0.33458,0.30523 0.33457,0.30524 -0.20228,9.09283 -0.20228,9.09282 -3.04271,1.6715 -3.04271,1.6715 -0.19496,0.004 -0.19497,0.004 z"
         id="path30" /><path
         style="fill:#85a3d1"
         d="m 97.002144,168.77233 -7.997856,-4.52202 -0.0058,-3.87795 -0.0058,-3.87794 7.474479,4.24018 7.474483,4.24019 0.58521,0.27094 0.58522,0.27095 4.15192,-2.47529 4.15193,-2.47528 -0.17308,-6.33668 -0.17308,-6.33668 v -3.24622 -3.24622 l -3.17263,-1.93646 -3.17264,-1.93645 -0.002,-0.14286 -0.002,-0.14285 3.17677,-1.78843 3.17678,-1.78843 3.4402,2.06337 3.4402,2.06336 -0.0685,13.32743 -0.0685,13.32742 -7.01146,4.21386 -7.01146,4.21386 -0.39688,0.21011 L 105,173.29435 Z m -3.700807,-11.36263 -11.43408,-6.65314 -0.07529,-8.93268 -0.07529,-8.93269 8.045124,-4.59369 8.045125,-4.5937 3.282514,1.97826 3.2825,1.97826 -0.0828,0.0748 -0.0828,0.0748 -8.009416,4.54658 -8.009415,4.54657 0.07191,4.8956 0.07192,4.89559 8.069792,4.77694 8.069789,4.77694 0.28831,0.0103 0.28831,0.0103 3.31504,-1.89618 3.31504,-1.89619 h 0.16696 0.16697 v 3.69188 3.69187 l -3.59963,2.12896 -3.59963,2.12896 -0.0384,-0.0276 -0.0384,-0.0276 z m 8.022953,-4.72837 -3.600332,-2.10823 v -4.18944 -4.18944 l 3.580342,-2.02096 3.58034,-2.02095 3.56468,2.06879 3.56469,2.0688 -0.0674,4.21445 -0.0674,4.21445 -3.47728,2.03538 -3.47727,2.03537 z m 19.94758,-6.81624 v -8.99251 l -0.99218,-0.62391 -0.99219,-0.62391 -3.1252,-1.79214 -3.12521,-1.79214 -8.25188,4.73341 -8.251877,4.7334 -0.132291,4.12342 -0.132292,4.12342 -3.241146,-1.83328 -3.241146,-1.83327 0.003,-4.28009 0.003,-4.28009 11.473522,-6.54844 11.47353,-6.54844 h 0.20891 0.20891 l 7.36787,4.27951 7.36788,4.2795 -0.0695,9.25801 -0.0695,9.258 -3.04271,1.67188 -3.04271,1.67188 -0.19844,0.004 -0.19844,0.004 z"
         id="path29" /><path
         style="fill:#7f9ecf"
         d="m 97.005436,168.76843 -7.994564,-4.51812 -0.0091,-3.935 -0.0091,-3.935 0.330729,0.26296 0.33073,0.26297 7.317981,4.13407 7.317978,4.13407 0.42469,0.16298 0.4247,0.16297 4.13821,-2.46711 4.13822,-2.46711 -0.17308,-6.33668 -0.17308,-6.33668 v -3.24622 -3.24622 l -3.17263,-1.93646 -3.17264,-1.93645 -0.002,-0.14286 -0.002,-0.14285 3.17677,-1.78843 3.17678,-1.78843 3.4402,2.06337 3.4402,2.06336 -0.0685,13.32743 -0.0685,13.32742 -7.01146,4.21386 -7.01146,4.21386 -0.39688,0.20621 L 105,173.28655 Z m -3.705773,-11.35946 -11.435753,-6.65241 0.0013,-8.99583 0.0013,-8.99583 7.970305,-4.5305 7.970305,-4.5305 3.28243,1.97821 3.28243,1.97821 -0.0828,0.0748 -0.0828,0.0748 -8.009419,4.54658 -8.009415,4.54657 0.07191,4.90948 0.07192,4.90948 8.069792,4.76451 8.069792,4.7645 0.28831,0.009 0.28831,0.009 3.31504,-1.89618 3.31504,-1.89619 h 0.16696 0.16697 v 3.69188 3.69187 l -3.59963,2.12896 -3.59963,2.12896 -0.0384,-0.0283 -0.0384,-0.0283 z m 8.143497,-4.66896 -3.483222,-2.04852 v -4.3135 -4.3135 l 3.461572,-1.95654 3.46158,-1.95655 3.56546,2.06925 3.56546,2.06925 -0.0674,4.21445 -0.0674,4.21445 -3.4764,2.03486 -3.4764,2.03487 z m 19.82871,-6.87492 v -8.99251 l -0.99218,-0.62391 -0.99219,-0.62391 -3.1252,-1.79214 -3.12521,-1.79214 -8.25188,4.73341 -8.251877,4.7334 -0.132291,4.12538 -0.132292,4.12539 -3.241146,-1.84783 -3.241146,-1.84783 0.003,-4.2675 0.003,-4.2675 11.473522,-6.54844 11.47353,-6.54844 h 0.20891 0.20891 l 7.36787,4.27951 7.36788,4.2795 -0.0695,9.25801 -0.0695,9.258 -3.04271,1.67188 -3.04271,1.67188 -0.19844,0.004 -0.19844,0.004 z"
         id="path28" /><path
         style="fill:#8c99c7"
         d="m 101.16354,171.08586 -3.836457,-2.20937 -4.1628,-2.31309 -4.1628,-2.31309 -0.0044,-3.77031 -0.0044,-3.77031 h 0.150695 0.150695 l 7.485269,4.22746 7.485268,4.22745 0.43744,0.16786 0.43744,0.16787 4.13821,-2.46711 4.13822,-2.46711 -0.17308,-6.33668 -0.17308,-6.33668 v -3.24622 -3.24622 l -3.17263,-1.93646 -3.17264,-1.93645 -0.002,-0.14286 -0.002,-0.14285 3.17677,-1.78843 3.17677,-1.78843 3.44021,2.06337 3.4402,2.06336 -0.0685,13.32743 -0.0685,13.32742 -7.01146,4.21386 -7.01146,4.21386 -0.39688,0.21056 L 105,173.29524 Z m 2.20755,-7.85775 -1.36433,-0.84786 -10.071293,-5.81184 -10.071296,-5.81185 0.0011,-8.99583 0.0011,-8.99583 7.970305,-4.5305 7.970305,-4.5305 3.282429,1.97821 3.28243,1.97821 -0.0828,0.0748 -0.0828,0.0748 -8.009418,4.54658 -8.009415,4.54657 0.07191,4.90753 0.07192,4.90753 7.011458,4.13995 7.011465,4.13995 1.2124,0.70869 1.2124,0.70869 3.2506,-1.85752 3.2506,-1.85753 0.36564,-0.14031 0.36565,-0.14031 v 3.72018 3.72018 l -3.59963,2.12896 -3.59963,2.12896 -0.0384,-0.021 -0.0384,-0.021 z m -1.89396,-10.46412 -3.47846,-2.00743 -0.003,-4.36562 -0.003,-4.36563 3.44752,-1.93559 3.44751,-1.93559 3.56312,2.06788 3.56313,2.06789 -0.0674,4.21445 -0.0674,4.21445 -3.46179,2.02631 -3.4618,2.02631 z m 19.79474,-6.8989 v -8.99251 l -0.99218,-0.62391 -0.99219,-0.62391 -3.1252,-1.79214 -3.12521,-1.79214 -8.25188,4.73341 -8.251877,4.7334 -0.132291,4.12538 -0.132292,4.12539 -3.241146,-1.84783 -3.241146,-1.84783 0.003,-4.2675 0.003,-4.2675 11.473522,-6.54844 11.47353,-6.54844 h 0.20891 0.20891 l 7.36787,4.27951 7.36788,4.2795 -0.0695,9.25801 -0.0695,9.258 -3.04271,1.67188 -3.04271,1.67188 -0.19844,0.004 -0.19844,0.004 z"
         id="path27" /><path
         style="fill:#8396c7"
         d="m 101.16354,171.09138 -3.836457,-2.21489 -4.1628,-2.31309 -4.1628,-2.31309 -0.0044,-3.77031 -0.0044,-3.77031 h 0.150695 0.150695 l 7.485269,4.22746 7.485268,4.22745 0.43744,0.16786 0.43744,0.16787 4.1383,-2.46717 4.13831,-2.46716 -0.1726,-6.49222 -0.17259,-6.49222 -5.8e-4,-3.09062 -5.7e-4,-3.09063 -3.17263,-1.93646 -3.17264,-1.93645 -0.002,-0.14286 -0.002,-0.14285 3.15281,-1.77494 3.15282,-1.77494 3.46177,2.04051 3.46177,2.04052 v 13.28997 13.28997 l -6.94531,4.1621 -6.94532,4.16211 -0.52916,0.31464 L 105,173.30626 Z m 2.20755,-7.86327 -1.36433,-0.84786 -10.071293,-5.81184 -10.071296,-5.81185 0.0011,-8.99583 0.0011,-8.99583 7.970305,-4.5305 7.970305,-4.5305 3.282429,1.97821 3.28243,1.97821 -0.0828,0.0729 -0.0828,0.0729 -8.009422,4.54725 -8.00942,4.54725 0.07192,4.91062 0.07192,4.91062 8.246093,4.86497 8.246099,4.86496 3.17911,-1.85682 3.17912,-1.85682 0.41489,-0.15921 0.4149,-0.15921 v 3.71121 3.71121 l -3.60063,2.13793 -3.60062,2.13793 -0.0374,-0.021 -0.0374,-0.021 z m -1.89396,-10.46412 -3.47846,-2.00743 2.45e-4,-4.36562 2.45e-4,-4.36563 3.45375,-1.93007 3.45375,-1.93008 3.55367,2.06237 3.55368,2.06237 -0.0674,4.21445 -0.0674,4.21445 -3.46179,2.02631 -3.4618,2.02631 z m 19.78786,-6.96836 -0.007,-9.06198 -4.10685,-2.34467 -4.10685,-2.34466 -8.25554,4.72591 -8.255537,4.72592 -0.132291,4.13095 -0.132292,4.13096 -3.241146,-1.84783 -3.241146,-1.84783 0.003,-4.2675 0.003,-4.2675 11.473522,-6.54844 11.47353,-6.54844 h 0.2051 0.20511 l 7.37167,4.28673 7.37167,4.28673 -0.0695,9.25025 -0.0695,9.25024 -3.04271,1.66767 -3.04271,1.66766 -0.19844,0.009 -0.19844,0.009 z"
         id="path26" /><path
         style="fill:#7798cc"
         d="m 96.873271,168.67585 -7.862145,-4.42554 -0.0092,-3.77031 -0.0092,-3.77031 h 0.150695 0.150695 l 7.485269,4.22746 7.485275,4.22745 0.43744,0.16786 0.43744,0.16787 4.1383,-2.46717 4.13831,-2.46716 -0.1726,-6.49222 -0.17259,-6.49222 -5.8e-4,-3.09062 -5.7e-4,-3.09063 -3.17263,-1.93646 -3.17264,-1.93645 -1e-4,-0.1323 -1e-4,-0.13229 3.14091,-1.78581 3.14091,-1.78582 3.47141,2.04547 3.47141,2.04548 v 13.28507 13.28508 l -7.29437,4.38079 -7.29437,4.38078 -0.3124,-0.006 -0.3124,-0.006 z m 6.497819,-5.44774 -1.36433,-0.84786 -10.071293,-5.81184 -10.071296,-5.81185 0.0058,-8.99583 0.0058,-8.99583 7.969147,-4.52839 7.969147,-4.52839 3.281145,1.97743 3.28114,1.97744 -8.094457,4.62308 -8.094462,4.62308 0.0719,4.90636 0.0719,4.90636 8.246093,4.86497 8.246096,4.86496 3.17911,-1.85682 3.17912,-1.85682 0.41489,-0.15921 0.4149,-0.15921 v 3.71121 3.71121 l -3.60063,2.13793 -3.60062,2.13793 -0.0374,-0.021 -0.0374,-0.021 z m -1.88818,-10.46076 -3.48424,-2.01079 2.45e-4,-4.36562 2.45e-4,-4.36563 3.45239,-1.92931 3.45238,-1.92931 3.55215,2.0616 3.55215,2.06161 -0.0645,4.19741 -0.0645,4.19741 -3.45601,2.04671 -3.456,2.04671 z m 19.78539,-6.97172 -0.004,-9.06198 -4.1169,-2.35601 -4.1169,-2.356 -0.97275,0.56581 -0.97275,0.56581 -7.32938,4.17144 -7.329381,4.17145 -0.07896,4.13069 -0.07895,4.13069 -3.241146,-1.84757 -3.241146,-1.84756 0.0017,-4.2675 0.0017,-4.2675 10.912393,-6.21014 10.91238,-6.21013 0.68292,-0.38364 0.68292,-0.38364 7.45634,4.33756 7.45634,4.33755 -0.0695,9.22826 -0.0695,9.22825 -3.04271,1.68646 -3.04271,1.68645 -0.19844,0.007 -0.19844,0.007 z"
         id="path25" /><path
         style="fill:#7c90c4"
         d="m 96.930208,168.66871 -7.805208,-4.42653 -0.07341,-3.76625 -0.07341,-3.76624 h 0.162023 0.162023 l 7.254456,4.10711 7.254458,4.10712 0.65048,0.29638 0.65048,0.29638 4.15201,-2.47534 4.15202,-2.47534 -0.1726,-6.49222 -0.17259,-6.49222 -5.8e-4,-3.09062 -5.7e-4,-3.09063 -3.17263,-1.93646 -3.17264,-1.93645 -1e-4,-0.1323 -10e-5,-0.13229 3.14091,-1.78581 3.14091,-1.78582 3.47141,2.04547 3.47141,2.04548 v 13.28507 13.28508 l -7.29437,4.38079 -7.29437,4.38078 -0.3124,-0.009 -0.3124,-0.009 z m -3.533774,-11.26378 -11.526013,-6.64837 0.0027,-8.99583 0.0027,-8.99583 7.969147,-4.52839 7.969147,-4.52839 3.281145,1.97743 3.28114,1.97744 -8.094457,4.62308 -8.094462,4.62308 0.0719,4.90752 0.0719,4.90752 8.243505,4.86532 8.243504,4.86532 3.18171,-1.85834 3.1817,-1.85833 0.42235,-0.16207 0.42235,-0.16207 -0.0736,3.75175 -0.0736,3.75175 -3.47836,2.06789 -3.47836,2.0679 z m 8.096366,-4.6405 -3.484226,-2.00787 -0.0047,-4.36562 -0.0047,-4.36563 3.452386,-1.92931 3.45238,-1.92931 3.55215,2.0616 3.55215,2.06161 -0.0645,4.19741 -0.0645,4.19741 -3.45108,2.04379 -3.45107,2.04379 z m 19.7755,-6.9688 -0.004,-9.06198 -4.1169,-2.35601 -4.1169,-2.356 -0.97275,0.56581 -0.97275,0.56581 -7.32938,4.17144 -7.329381,4.17145 -0.07896,4.13916 -0.07895,4.13916 -3.241146,-1.87523 -3.241146,-1.87522 0.0017,-4.24831 0.0017,-4.24831 10.912393,-6.21014 10.91238,-6.21013 0.68292,-0.38364 0.68292,-0.38364 7.45634,4.33756 7.45634,4.33755 -0.0695,9.22826 -0.0695,9.22825 -3.04271,1.68646 -3.04271,1.68645 -0.19844,0.007 -0.19844,0.007 z"
         id="path24" /><path
         style="fill:#7093ca"
         d="m 96.930208,168.66871 -7.805208,-4.42653 -0.07341,-3.76625 -0.07341,-3.76624 h 0.15676 0.15676 l 7.773355,4.39155 7.773355,4.39156 0.16067,-0.003 0.16068,-0.003 4.12842,-2.45164 4.12842,-2.45164 -0.17283,-6.50117 -0.17283,-6.50118 -5.8e-4,-3.0958 -5.7e-4,-3.0958 -3.16672,-1.93128 -3.16672,-1.93128 -0.006,-0.1323 -0.006,-0.13229 3.14116,-1.78596 3.14117,-1.78596 3.46926,2.05054 3.46925,2.05055 0.002,13.28015 0.002,13.28015 -7.29437,4.38079 -7.29437,4.38078 -0.3124,-0.009 -0.3124,-0.009 z m -3.533774,-11.26378 -11.526013,-6.64837 0.0018,-8.99583 0.0018,-8.99583 7.979447,-4.5227 7.979446,-4.52269 3.275896,1.97427 3.27589,1.97427 -8.026752,4.56622 -8.026755,4.56622 v 4.96158 4.96159 l 8.239615,4.86329 8.239612,4.86328 3.45782,-1.98694 3.45783,-1.98694 h 0.14993 0.14993 l -0.0734,3.72059 -0.0734,3.72058 -3.47836,2.06789 -3.47836,2.0679 z m 27.871866,-11.6093 -0.004,-9.06198 -4.11059,-2.35238 -4.11059,-2.35238 -1.12748,0.63259 -1.12748,0.63258 -7.17922,4.10104 -7.17923,4.10105 -0.08069,4.13916 -0.08069,4.13916 -3.241146,-1.87523 -3.241146,-1.87522 0.0012,-4.24831 0.0012,-4.24831 11.141262,-6.35 11.14126,-6.35 0.47316,-0.22726 0.47315,-0.22726 7.43767,4.32479 7.43767,4.32479 -0.0695,9.2245 -0.0695,9.22451 -3.04271,1.68646 -3.04271,1.68645 -0.19844,0.007 -0.19844,0.007 z m -20.02938,6.8527 -3.231908,-1.89177 -0.0027,-4.36562 -0.0027,-4.36563 3.444488,-1.91905 3.44449,-1.91905 3.55551,2.05134 3.55551,2.05135 0.005,4.15886 0.005,4.15885 -3.37344,1.98881 -3.37344,1.98881 -0.39687,-0.0226 -0.39688,-0.0226 z"
         id="path23" /><path
         style="fill:#7b8bc0"
         d="m 96.930208,168.65326 -7.805208,-4.43164 -0.07341,-3.75596 -0.07341,-3.75597 h 0.129741 0.12974 l 7.797405,4.39687 7.797404,4.39687 0.16364,-0.008 0.16365,-0.008 4.12842,-2.45164 4.12842,-2.45164 -0.17283,-6.50117 -0.17283,-6.50118 -5.8e-4,-3.0958 -5.7e-4,-3.0958 -3.16672,-1.93128 -3.16672,-1.93128 -0.006,-0.1323 -0.006,-0.13229 3.14116,-1.78596 3.14117,-1.78596 3.46926,2.05054 3.46925,2.05055 0.002,13.28015 0.002,13.28015 -7.29437,4.38079 -7.29437,4.38078 -0.3124,-0.0145 -0.3124,-0.0145 z m 1.810347,-8.18145 -6.175972,-3.58501 -5.291666,-3.07434 -5.291667,-3.07434 -0.05631,-8.98661 -0.05631,-8.98661 7.982173,-4.5227 7.982172,-4.52269 3.275895,1.97427 3.27589,1.97427 -8.026751,4.56622 -8.026755,4.56622 v 4.98063 4.98064 l 8.23066,4.84938 8.230656,4.84938 3.46678,-1.99208 3.46678,-1.99209 h 0.14993 0.14993 l -0.0734,3.72059 -0.0734,3.72058 -3.48132,2.06965 -3.48132,2.06966 z m 22.527745,-14.67618 -0.004,-9.06198 -4.11059,-2.35238 -4.11059,-2.35238 -1.12748,0.63259 -1.12748,0.63258 -7.17922,4.10104 -7.17923,4.10105 -0.08069,4.12925 -0.08069,4.12925 -3.241146,-1.87684 -3.241146,-1.87683 0.0012,-4.23679 0.0012,-4.23679 11.141262,-6.35 11.14126,-6.35 0.47316,-0.22726 0.47315,-0.22726 7.43767,4.32479 7.43767,4.32479 -0.0695,9.2245 -0.0695,9.22451 -3.04271,1.68646 -3.04271,1.68645 -0.19844,0.007 -0.19844,0.007 z m -20.02752,6.8504 -3.230063,-1.88947 -0.0046,-4.36562 -0.0046,-4.36563 3.444483,-1.91905 3.44449,-1.91905 3.55551,2.05134 3.55551,2.05135 0.005,4.15886 0.005,4.15885 -3.37344,1.98881 -3.37344,1.98881 -0.39687,-0.0249 -0.39688,-0.0249 z"
         id="path22" /><path
         style="fill:#668cc7"
         d="m 96.930208,168.65326 -7.805208,-4.43164 -0.07341,-3.75596 -0.07341,-3.75597 h 0.129741 0.12974 l 7.797405,4.39687 7.797404,4.39687 0.16818,-4.2e-4 0.16819,-4.2e-4 4.08606,-2.42197 4.08606,-2.42197 -0.0694,-9.58125 -0.0694,-9.58125 -3.23084,-1.98438 -3.23084,-1.98437 -0.01,-0.1323 -0.01,-0.13229 3.1608,-1.78116 3.1608,-1.78116 3.44551,2.04575 3.44552,2.04574 0.008,13.28015 0.008,13.28015 -7.29437,4.38079 -7.29437,4.38078 -0.3124,-0.0145 -0.3124,-0.0145 z m 1.719792,-8.21753 -5.820833,-3.39646 -5.423959,-3.15057 -5.423958,-3.15058 -0.05469,-8.98661 -0.05469,-8.98661 7.697451,-4.36563 7.697451,-4.36562 0.37941,-0.0891 0.379409,-0.0891 3.184329,1.90407 3.18432,1.90406 -8.031499,4.56369 -8.031494,4.56368 v 4.98542 4.98542 l 8.23066,4.84938 8.230663,4.84938 3.46678,-1.99208 3.46678,-1.99209 h 0.14266 0.14267 v 3.6783 3.6783 l -3.41266,2.01024 -3.41266,2.01025 -0.35765,-0.0106 -0.35766,-0.0106 z m 22.6178,-14.6401 -0.004,-9.06198 -3.89853,-2.24896 -3.89853,-2.24896 h -0.40069 -0.40069 l -8.11698,4.63021 -8.116989,4.63021 -0.08128,4.12925 -0.08129,4.12925 -3.241146,-1.87684 -3.241146,-1.87683 0.0037,-4.23679 0.0037,-4.23679 11.144671,-6.35 11.14468,-6.35 0.46518,-0.22631 0.46519,-0.22631 7.4398,4.32635 7.4398,4.32634 -0.0695,9.22433 -0.0695,9.22434 -3.04271,1.67812 -3.04271,1.67813 -0.19844,0.0126 -0.19844,0.0126 z m -20.02702,6.8504 -3.230063,-1.88947 -4.98e-4,-4.36562 -4.99e-4,-4.36563 3.43914,-1.91979 3.43915,-1.9198 3.55679,2.05209 3.55679,2.05209 0.005,4.15886 0.005,4.15885 -3.37344,1.98881 -3.37344,1.98881 -0.39687,-0.0249 -0.39688,-0.0249 z"
         id="path21" /><path
         style="fill:#6d85be"
         d="m 96.930208,168.63563 -7.805208,-4.44227 -0.07341,-3.74184 -0.07341,-3.74183 h 0.139834 0.139834 l 7.738785,4.38656 7.738787,4.38656 0.15022,0.0452 0.15023,0.0452 4.15254,-2.45729 4.15255,-2.45729 -0.0694,-9.58125 -0.0694,-9.58125 -3.23084,-1.98438 -3.23084,-1.98437 -0.01,-0.1323 -0.01,-0.13229 3.1608,-1.78116 3.1608,-1.78116 3.44551,2.04575 3.44552,2.04574 0.008,13.28015 0.008,13.28015 -7.29437,4.38079 -7.29437,4.38078 -0.3124,-0.018 -0.3124,-0.018 z m 7.004182,-5.14322 -0.52189,-0.36104 -6.085417,-3.51503 -6.085416,-3.51503 -4.630209,-2.67237 -4.630208,-2.67238 -0.05469,-8.99583 -0.05469,-8.99583 7.697451,-4.36563 7.697451,-4.36562 0.37941,-0.0891 0.379409,-0.0891 3.184329,1.90407 3.18432,1.90406 -8.031499,4.56344 -8.031494,4.56343 -0.0717,5.01984 -0.0717,5.01984 0.600868,0.27436 0.600868,0.27435 7.14375,4.22437 7.143747,4.22438 0.57442,0.3069 0.57442,0.3069 3.4501,-1.9825 3.45011,-1.98251 h 0.14266 0.14267 v 3.6783 3.6783 l -3.41266,2.01024 -3.41266,2.01025 h -0.36493 -0.36493 z m 17.33341,-17.69678 -0.004,-9.06198 -3.89853,-2.24896 -3.89853,-2.24896 h -0.40069 -0.40069 l -8.12198,4.63021 -8.121991,4.63021 -0.01014,4.15343 -0.01014,4.15343 -3.30238,-1.90447 -3.30238,-1.90448 -0.0013,-4.23333 -0.0013,-4.23333 11.144671,-6.35 11.14468,-6.35 0.46518,-0.22631 0.46519,-0.22631 7.4398,4.32635 7.4398,4.32634 -0.0695,9.22433 -0.0695,9.22434 -3.04271,1.67812 -3.04271,1.67813 -0.19844,0.0126 -0.19844,0.0126 z m -19.83968,6.87897 -3.307287,-1.92397 -0.06046,-4.36266 -0.06046,-4.36266 3.444057,-1.91979 3.44405,-1.9198 3.55679,2.05209 3.55679,2.05209 0.005,4.15708 0.005,4.15708 -3.21969,1.89865 -3.21969,1.89864 -0.41833,0.0986 -0.41833,0.0986 z"
         id="path20" /><path
         style="fill:#6880bc"
         d="m 96.930208,168.63563 -7.805208,-4.44227 -0.07341,-3.74184 -0.07341,-3.74183 h 0.139834 0.139834 l 7.738785,4.38656 7.738787,4.38656 0.15944,0.0452 0.15945,0.0452 4.14003,-2.45437 4.14003,-2.45436 v -9.47703 -9.47702 l -0.46302,-0.39516 -0.46302,-0.39516 -2.83836,-1.69637 -2.83837,-1.69636 -0.005,-0.1323 -0.005,-0.13229 3.1608,-1.78116 3.1608,-1.78116 3.44551,2.04575 3.44552,2.04574 0.008,13.28145 0.008,13.28145 -7.31242,4.37949 -7.31242,4.37948 -0.29435,-0.018 -0.29435,-0.018 z m 7.004182,-5.14322 -0.52189,-0.36104 -6.085417,-3.51503 -6.085416,-3.51503 -4.630209,-2.67237 -4.630208,-2.67238 -0.05616,-8.99583 -0.05616,-8.99583 7.712356,-4.36563 7.712357,-4.36562 0.357797,-0.0875 0.357797,-0.0875 3.159043,1.90861 3.15903,1.90862 -7.998032,4.55296 -7.998031,4.55295 -0.0717,5.0242 -0.0717,5.02419 0.600868,0.27436 0.600868,0.27435 7.14375,4.22437 7.143747,4.22438 0.57442,0.3069 0.57442,0.3069 3.4501,-1.9825 3.45011,-1.98251 h 0.14266 0.14267 v 3.6783 3.6783 l -3.41266,2.01024 -3.41266,2.01025 h -0.36493 -0.36493 z m 17.33341,-17.69678 -0.004,-9.06198 -3.89853,-2.24896 -3.89853,-2.24896 h -0.40397 -0.40397 l -8.12553,4.63021 -8.125532,4.63021 -0.0033,4.15343 -0.0033,4.15343 -3.30238,-1.90447 -3.30238,-1.90448 0.0036,-4.23333 0.0036,-4.23333 11.135172,-6.35 11.13518,-6.35 0.46853,-0.22571 0.46852,-0.22571 7.43606,4.32675 7.43606,4.32675 0.002,9.17569 0.002,9.17568 -3.16084,1.73838 -3.16083,1.73837 h -0.14646 -0.14646 z m -19.83968,6.87162 -3.307287,-1.91662 -0.06246,-4.36266 -0.06246,-4.36266 3.463687,-1.90439 3.46369,-1.9044 3.53908,2.03669 3.53908,2.03669 -0.0611,4.20253 -0.0611,4.20254 -3.30729,1.93853 -3.3073,1.93853 -0.26458,0.006 -0.26458,0.006 z"
         id="path19" /><path
         style="fill:#5b84c3"
         d="m 96.930208,168.64245 -7.805208,-4.44909 -0.07341,-3.74184 -0.07341,-3.74183 h 0.139834 0.139834 l 7.738785,4.39917 7.738787,4.39918 0.26458,0.005 0.26458,0.005 4.0349,-2.4363 4.03489,-2.4363 v -9.48911 -9.48911 l -0.62213,-0.48222 -0.62214,-0.48222 -2.67681,-1.5875 -2.67681,-1.5875 -8.8e-4,-0.1323 -8.8e-4,-0.13229 3.14494,-1.7734 3.14494,-1.77341 3.45579,2.03799 3.45578,2.03799 0.006,13.27147 0.006,13.27147 -7.17541,4.29022 -7.1754,4.29023 -0.43137,0.0881 -0.43136,0.0881 z m 7.004182,-5.15004 -0.52189,-0.36104 -6.085417,-3.51503 -6.085416,-3.51503 -4.630209,-2.67237 -4.630208,-2.67238 v -8.9695 -8.96951 l 7.765359,-4.4581 7.765359,-4.4581 h 0.258964 0.258965 l 3.146623,1.88153 3.14662,1.88152 -7.995947,4.56127 -7.995943,4.56126 -0.0717,5.02159 -0.0717,5.02158 0.600868,0.27436 0.600868,0.27435 7.14375,4.22437 7.143744,4.22438 0.59716,0.31907 0.59716,0.31907 3.41824,-1.99467 3.41824,-1.99468 h 0.15179 0.15179 v 3.67718 3.67718 l -3.42766,2.01137 -3.42767,2.01136 h -0.34992 -0.34993 z m 17.3324,-17.69678 -0.005,-9.06198 -3.88437,-2.24896 -3.88437,-2.24896 h -0.41937 -0.41936 l -8.12434,4.63021 -8.124334,4.63021 -0.0023,4.15343 -0.0023,4.15343 -3.30238,-1.90447 -3.30238,-1.90448 0.0036,-4.23333 0.0036,-4.23333 11.135174,-6.35 11.13518,-6.35 0.46549,-0.22436 0.46549,-0.22435 7.43691,4.32539 7.43691,4.3254 0.004,9.17569 0.004,9.17568 -3.16084,1.73838 -3.16083,1.73837 h -0.14646 -0.14646 z m -19.83867,6.8713 -3.307287,-1.91694 v -4.35462 -4.35462 l 3.392977,-1.91693 3.39297,-1.91693 3.54734,2.0415 3.54734,2.04151 -0.0611,4.193 -0.0611,4.19301 -3.30729,1.94767 -3.3073,1.94768 -0.26458,0.006 -0.26458,0.006 z"
         id="path18" /><path
         style="fill:#5a83c3"
         d="m 102.56454,171.82823 -2.17089,-1.24815 -0.21036,-0.22084 -0.210373,-0.22085 1.105753,0.55752 1.10576,0.55751 1.34164,0.79106 1.34164,0.79106 -0.002,-3.49886 -0.002,-3.49887 -1.78417,-0.97577 -1.78417,-0.97578 -0.52916,-0.43566 -0.52917,-0.43567 1.85208,0.99228 1.85209,0.99228 0.52916,0.33512 0.52917,0.33512 4.16719,-2.51214 4.16718,-2.51213 v -9.48931 -9.48931 l -0.62213,-0.48222 -0.62214,-0.48222 -2.67681,-1.5875 -2.67681,-1.5875 -8.8e-4,-0.1323 -8.8e-4,-0.13229 3.14494,-1.7734 3.14494,-1.77341 3.45579,2.03799 3.45578,2.03799 0.006,13.27147 0.006,13.27147 -7.17541,4.29022 -7.1754,4.29023 -0.43137,0.0805 -0.43136,0.0805 z m 0.76617,-8.69117 -1.14012,-0.66345 0.12294,-0.12293 0.12293,-0.12294 1.08333,0.68388 1.08334,0.68387 0.005,-3.50905 0.005,-3.50904 3.55409,-2.05052 3.55409,-2.05053 h 0.14514 0.14515 v 3.67718 3.67718 l -3.42766,2.01137 -3.42767,2.01136 -0.34265,-0.0265 -0.34265,-0.0265 z m 17.93608,-17.34143 -0.005,-9.06198 -3.88437,-2.24896 -3.88437,-2.24896 h -0.41937 -0.41936 l -8.12434,4.63021 -8.124334,4.63021 -0.0023,4.15826 -0.0023,4.15826 -0.937339,-0.55304 -0.937339,-0.55304 0.120632,-0.12063 0.120633,-0.12064 0.684415,0.44845 0.684414,0.44844 -0.0017,-3.93303 -0.0017,-3.93303 -0.725932,-0.41323 -0.725931,-0.41323 -2.315104,-1.36792 -2.315104,-1.36791 v 3.9408 3.9408 l 2.116666,1.22089 2.116667,1.22089 v 0.1446 0.1446 l -1.521354,-0.86694 -1.521354,-0.86693 -0.725932,-0.40925 -0.725931,-0.40926 0.0068,-4.23333 0.0068,-4.23333 11.135177,-6.35 11.13518,-6.35 0.46549,-0.22436 0.46549,-0.22435 7.43691,4.32539 7.43691,4.3254 0.004,9.17569 0.004,9.17568 -3.16084,1.73838 -3.16083,1.73837 h -0.14646 -0.14646 z m -18.64804,7.57043 -2.11667,-1.2174 -1.26317,-0.79388 -1.263173,-0.79389 0.07255,-4.2604 0.07255,-4.2604 3.392973,-1.9166 3.39297,-1.9166 3.54734,2.0415 3.54734,2.04151 -0.0611,4.193 -0.0611,4.19301 -3.30729,1.94767 -3.3073,1.94768 -0.26458,0.006 -0.26458,0.006 z m 2.2488,-2.94023 -1.6e-4,-3.9026 -3.13744,-1.91823 -3.137446,-1.91823 h -0.169689 -0.16969 v 3.91222 3.91223 l 3.241145,1.90335 3.24115,1.90336 0.0661,0.005 0.0662,0.005 z m -22.162181,0.69496 -0.863381,-0.5529 0.06963,-8.87526 0.06963,-8.87527 7.765359,-4.458 7.765359,-4.45801 h 0.258964 0.258965 l 3.146625,1.88153 3.14662,1.88152 -7.995949,4.56127 -7.995943,4.56126 -0.06745,5.00044 -0.06744,5.00044 1.5888,0.87027 1.588799,0.87027 v 0.14605 0.14605 l -1.653645,-0.92858 -1.653646,-0.92857 -0.07178,-5.11483 -0.07179,-5.11482 -2.683608,-1.5875 -2.683608,-1.5875 -0.221169,-0.0882 -0.22117,-0.0882 v 8.621 8.62101 l 0.198437,0.006 0.198438,0.006 0.661458,0.5174 0.661458,0.5174 -0.132291,10e-4 -0.132292,0.001 z"
         id="path17" /><path
         style="fill:#5681c2"
         d="m 104.45981,172.83144 -0.20303,-0.32851 0.3197,0.19758 0.3197,0.19759 -0.0804,-3.68492 -0.0804,-3.68492 0.26458,-0.005 0.26458,-0.005 4.0349,-2.4363 4.03489,-2.4363 v -9.48911 -9.48911 l -0.62213,-0.48222 -0.62214,-0.48222 -2.67681,-1.5875 -2.67681,-1.5875 -8.8e-4,-0.1323 -8.8e-4,-0.13229 3.14494,-1.7734 3.14494,-1.77341 3.45579,2.03799 3.45578,2.03799 0.006,13.27147 0.006,13.27147 -7.17541,4.29022 -7.1754,4.29023 -0.46765,0.12229 -0.46765,0.12229 z m -0.27883,-9.28347 -0.18878,-0.30546 0.30546,0.18879 0.30547,0.18878 0.005,-3.52134 0.005,-3.52134 3.55409,-2.05052 3.55409,-2.05053 h 0.14514 0.14515 v 3.67718 3.67718 l -3.42766,2.01137 -3.42767,2.01136 h -0.39318 -0.39318 z m 17.08581,-17.75234 -0.005,-9.06198 -3.88437,-2.24896 -3.88437,-2.24896 h -0.41937 -0.41936 l -8.12434,4.63021 -8.124334,4.63021 -0.0023,4.21128 -0.0023,4.21129 -0.157574,-0.15758 -0.157574,-0.15757 0.03634,-4.05486 0.03634,-4.05485 -2.987622,-1.75423 -2.987622,-1.75422 -0.07339,3.83619 -0.07339,3.8362 0.309254,0.37262 0.309254,0.37263 -0.434299,-0.16665 -0.434299,-0.16666 0.0085,-4.27117 0.0085,-4.27117 11.135176,-6.35 11.13518,-6.35 0.46549,-0.22436 0.46549,-0.22435 7.43691,4.32539 7.43691,4.3254 0.004,9.17569 0.004,9.17568 -3.16084,1.73838 -3.16083,1.73837 h -0.14646 -0.14646 z m -16.45275,4.74278 0.0786,-4.05537 -3.4571,-2.08209 -3.457098,-2.08209 0.335764,-0.30808 0.335764,-0.30808 3.12931,-1.74737 3.12931,-1.74737 3.54642,2.04097 3.54642,2.04097 -0.0611,4.193 -0.0611,4.19301 -3.30729,1.94767 -3.3073,1.94768 -0.26458,0.0113 -0.26458,0.0113 z m -22.844791,0.0177 -0.127686,-0.33274 0.06984,-8.70301 0.06984,-8.70301 7.765359,-4.458 7.765359,-4.458 h 0.258964 0.258965 l 3.14662,1.88153 3.14662,1.88152 -7.995944,4.56106 -7.995943,4.56107 -0.141147,5.00064 -0.141146,5.00064 -0.05729,-5.02915 -0.05729,-5.02916 -2.754311,-1.65157 -2.754312,-1.65158 h -0.163096 -0.163097 l 0.07314,8.73138 0.07314,8.73138 -0.07445,-1.3e-4 -0.07445,-1.3e-4 z"
         id="path16" /><path
         style="fill:#537fc1"
         d="m 104.45981,172.83144 -0.20303,-0.32851 0.3197,0.19758 0.3197,0.19759 -0.0804,-3.68492 -0.0804,-3.68492 0.26458,-0.005 0.26458,-0.005 4.0349,-2.4363 4.03489,-2.4363 v -9.48911 -9.48911 l -0.62213,-0.48222 -0.62214,-0.48222 -2.67681,-1.5875 -2.67681,-1.5875 -8.8e-4,-0.1323 -8.8e-4,-0.13229 3.14494,-1.7734 3.14494,-1.77341 3.45579,2.03799 3.45578,2.03799 0.006,13.27147 0.006,13.27147 -7.17541,4.29022 -7.1754,4.29023 -0.46765,0.12229 -0.46765,0.12229 z m -0.27883,-9.28347 -0.18878,-0.30546 0.30546,0.18879 0.30547,0.18878 0.005,-3.52134 0.005,-3.52134 3.55409,-2.05052 3.55409,-2.05053 h 0.14514 0.14515 v 3.67718 3.67718 l -3.42766,2.01137 -3.42767,2.01136 h -0.39318 -0.39318 z m 17.08581,-17.75234 -0.005,-9.06198 -3.88437,-2.24896 -3.88437,-2.24896 h -0.41937 -0.41936 l -8.12434,4.63021 -8.124334,4.63021 -0.0023,4.21128 -0.0023,4.21129 -0.157574,-0.15758 -0.157574,-0.15757 0.03566,-4.05371 0.03566,-4.05371 -2.986942,-1.78187 -2.986943,-1.78188 -0.142525,4.16313 -0.142525,4.16312 -0.04744,-4.36563 -0.04744,-4.36562 11.135177,-6.35 11.13518,-6.35 0.46549,-0.22436 0.46549,-0.22435 7.43691,4.32539 7.43691,4.3254 0.004,9.17569 0.004,9.17568 -3.16084,1.73838 -3.16083,1.73837 h -0.14646 -0.14646 z m -16.39908,4.7251 v -4.0723 l -3.4318,-2.07761 -3.431793,-2.0776 0.322942,-0.29526 0.322941,-0.29526 3.12931,-1.74737 3.12931,-1.74737 3.54642,2.04097 3.54642,2.04097 -0.0611,4.193 -0.0611,4.19301 -3.30729,1.94767 -3.3073,1.94768 -0.19843,0.0109 -0.19844,0.0109 z m -16.876044,-8.78687 -0.05729,-5.05396 -3.06204,-1.79265 -3.06204,-1.79265 0.217769,-0.21643 0.217769,-0.21644 7.634036,-4.38019 7.634036,-4.38019 h 0.257996 0.257996 l 3.146622,1.88153 3.14662,1.88152 -7.995946,4.56106 -7.995943,4.56107 -0.141147,5.00064 -0.141146,5.00064 z"
         id="path15" /><path
         style="fill:#607ab9"
         d="m 104.45981,172.83144 -0.20303,-0.32851 0.3197,0.19758 0.3197,0.19759 -0.0804,-3.68492 -0.0804,-3.68492 0.26458,-0.005 0.26458,-0.005 4.0349,-2.4363 4.03489,-2.4363 v -9.48911 -9.48911 l -0.62213,-0.48222 -0.62214,-0.48222 -2.67681,-1.5875 -2.67681,-1.5875 -8.8e-4,-0.1323 -8.8e-4,-0.13229 3.14494,-1.7734 3.14494,-1.77341 3.45579,2.03799 3.45578,2.03799 0.006,13.27147 0.006,13.27147 -7.17541,4.29022 -7.1754,4.29023 -0.46765,0.12229 -0.46765,0.12229 z m -0.25169,-9.23955 -0.16165,-0.26156 0.42537,0.16323 0.42537,0.16323 -0.0809,-3.56444 -0.0809,-3.56445 3.49287,-2.02577 3.49288,-2.02578 h 0.14514 0.14515 v 3.67718 3.67718 l -3.42766,2.01137 -3.42767,2.01136 h -0.39318 -0.39318 z m 17.05867,-17.79626 -0.005,-9.06198 -3.88437,-2.24896 -3.88437,-2.24896 h -0.41937 -0.41936 l -8.12434,4.63021 -8.124334,4.63021 -0.0023,4.03489 -0.0023,4.0349 -0.198438,3.8e-4 -0.198437,3.8e-4 0.07867,-4.05993 0.07867,-4.05993 -3.179516,-1.82743 -3.179516,-1.82743 4.59e-4,-0.13229 4.58e-4,-0.13229 11.135174,-6.35 11.13518,-6.35 0.46549,-0.22436 0.46549,-0.22435 7.43691,4.32539 7.43691,4.3254 0.004,9.17569 0.004,9.17568 -3.16084,1.73838 -3.16083,1.73837 h -0.14646 -0.14646 z m -16.39908,4.71046 v -4.08692 l -3.4347,-2.06007 -3.434707,-2.06007 0.325849,-0.29817 0.325848,-0.29816 3.12931,-1.74737 3.12931,-1.74737 3.54642,2.04097 3.54642,2.04097 -0.0611,4.193 -0.0611,4.19301 -3.30729,1.94767 -3.3073,1.94768 -0.19843,0.0109 -0.19844,0.0109 z m -19.902531,-15.57437 -3.101489,-1.89051 0.191072,-0.18974 0.191071,-0.18974 7.634036,-4.38019 7.634036,-4.38019 h 0.257996 0.257996 l 3.146593,1.88151 3.14659,1.88151 -8.064609,4.60078 -8.064613,4.60079 -0.0636,-0.0219 -0.0636,-0.0219 z"
         id="path14" /><path
         style="fill:#507dc0"
         d="m 104.44557,172.80839 -0.18879,-0.30546 0.3197,0.19758 0.3197,0.19759 -0.0804,-3.68492 -0.0804,-3.68492 0.26458,-0.005 0.26458,-0.005 4.0349,-2.4363 4.03489,-2.4363 v -9.57908 -9.57909 l -3.29776,-1.97975 -3.29777,-1.97974 -0.004,-0.1323 -0.004,-0.13229 3.07764,-1.71979 3.07764,-1.71979 0.27085,0.0819 0.27086,0.0819 3.25333,1.9025 3.25333,1.90251 0.007,13.26005 0.007,13.26005 -7.34945,4.40089 -7.34945,4.40088 h -0.30785 -0.30786 z m -0.23745,-9.2165 -0.16165,-0.26156 0.42537,0.16323 0.42537,0.16323 -0.0809,-3.56731 -0.0809,-3.56731 3.39762,-1.95676 3.39763,-1.95676 0.24039,-0.0882 0.2404,-0.0882 v 3.69923 3.69922 l -3.42766,2.01137 -3.42767,2.01136 h -0.39318 -0.39318 z m 17.06159,-17.79626 -0.002,-9.06198 -3.88622,-2.24896 -3.88621,-2.24896 h -0.46318 -0.46317 l -8.07915,4.63021 -8.079156,4.63021 -0.0047,4.03489 -0.0047,4.0349 -0.198438,3.8e-4 -0.198437,3.8e-4 0.07867,-4.05993 0.07867,-4.05993 -3.179516,-1.82743 -3.179516,-1.82743 -3.28e-4,-0.13229 -3.28e-4,-0.13229 11.427589,-6.4823 11.4276,-6.48229 h 0.33038 0.33038 l 7.27851,4.23334 7.2785,4.23333 0.006,9.16567 0.006,9.16566 -3.16238,1.7484 -3.16237,1.74839 h -0.14492 -0.14492 z m -16.402,4.71046 v -4.08692 l -3.43234,-2.05865 -3.432342,-2.05865 0.233934,-0.23394 0.233934,-0.23393 3.220664,-1.79242 3.22067,-1.79243 3.54485,2.02037 3.54486,2.02038 -0.0614,4.193 -0.0614,4.19301 -3.30729,1.94767 -3.3073,1.94768 -0.19843,0.0109 -0.19844,0.0109 z m -19.902531,-15.57437 -3.101489,-1.89051 0.194025,-0.19403 0.194025,-0.19402 7.270435,-4.14592 7.270435,-4.14592 0.569392,-0.25943 0.569391,-0.25944 3.198967,1.91283 3.19896,1.91282 -8.111992,4.59892 -8.111994,4.59892 -0.01933,-0.0219 -0.01933,-0.0219 z"
         id="path13" /><path
         style="fill:#5874b7"
         d="m 104.86771,169.45386 v -3.71662 l 4.23333,-2.54526 4.23333,-2.54526 v -9.57992 -9.57991 l -3.29776,-1.97975 -3.29777,-1.97974 -0.004,-0.1323 -0.004,-0.13229 3.07764,-1.71979 3.07764,-1.71979 0.27085,0.0819 0.27086,0.0819 3.25333,1.9025 3.25333,1.90251 0.007,13.25816 0.007,13.25816 -7.12279,4.27075 -7.12278,4.27074 -0.41784,0.16034 -0.41784,0.16034 z m -0.0522,-9.26603 -0.0801,-3.66561 3.39762,-1.95679 3.39763,-1.95678 0.24039,-0.0882 0.2404,-0.0882 v 3.69923 3.69922 l -3.42766,2.01137 -3.42767,2.01136 h -0.13026 -0.13027 z m 16.4542,-14.3922 -0.002,-9.06198 -3.87387,-2.24896 -3.87387,-2.24896 -0.33937,-0.0821 -0.33936,-0.0821 -8.24776,4.74531 -8.247763,4.7453 -3.036871,-1.80419 -3.036871,-1.8042 -0.308824,-0.11081 -0.308824,-0.11082 0.132291,-0.12641 0.132292,-0.12641 10.84792,-6.15923 10.84791,-6.15922 0.68671,-0.39806 0.68671,-0.39806 7.44291,4.33237 7.44291,4.33237 0.006,9.16567 0.006,9.16566 -3.16238,1.7484 -3.16237,1.74839 h -0.14492 -0.14492 z m -16.402,4.71847 v -4.07891 l -3.46427,-2.11652 -3.464259,-2.11652 0.619993,-0.38769 0.619993,-0.38769 2.861803,-1.59154 2.8618,-1.59154 3.54958,2.0231 3.54959,2.02311 -0.0614,4.193 -0.0614,4.19301 -3.30729,1.94767 -3.3073,1.94768 -0.19843,0.0109 -0.19844,0.0109 z m -19.902531,-15.58238 -3.101489,-1.89051 0.194025,-0.19403 0.194025,-0.19402 7.270435,-4.14592 7.270435,-4.14592 0.569392,-0.25943 0.569391,-0.25944 3.198967,1.91283 3.19896,1.91282 -8.111992,4.59892 -8.111994,4.59892 -0.01933,-0.0219 -0.01933,-0.0219 z"
         id="path12" /><path
         style="fill:#5c70b2"
         d="m 104.86771,169.45386 v -3.71662 l 4.23333,-2.54526 4.23333,-2.54526 v -9.57779 -9.57779 l -0.59531,-0.3743 -0.59531,-0.37431 -2.70799,-1.64462 -2.708,-1.64463 0.32675,-0.2597 0.32674,-0.2597 2.81729,-1.58727 2.81728,-1.58727 3.45471,2.01632 3.45471,2.01632 0.0119,13.25816 0.0119,13.25816 -7.12279,4.27075 -7.12278,4.27074 -0.41784,0.16034 -0.41784,0.16034 z m -0.0522,-9.26603 -0.0801,-3.66561 3.39762,-1.95679 3.39763,-1.95678 0.24039,-0.0882 0.2404,-0.0882 v 3.69923 3.69922 l -3.42766,2.01137 -3.42767,2.01136 h -0.13026 -0.13027 z m 16.45636,-14.39382 v -9.0636 l -4.00121,-2.33585 -4.00121,-2.33586 -0.43056,0.11925 -0.43056,0.11925 -8.03586,4.62982 -8.035867,4.62981 -3.032394,-1.80153 -3.032394,-1.80154 -0.308824,-0.11081 -0.308824,-0.11082 0.132291,-0.12505 0.132292,-0.12505 11.37571,-6.45961 11.3757,-6.45961 h 0.27789 0.27789 l 7.32533,4.23334 7.32533,4.23333 0.005,9.16567 0.005,9.16566 -3.16238,1.7484 -3.16237,1.74839 h -0.14492 -0.14492 z m -16.40416,4.72009 v -4.07891 l -3.46107,-2.11457 -3.461075,-2.11457 1.807426,-1.04267 1.807429,-1.04266 1.67776,-0.93279 1.67776,-0.93279 3.48161,2.02502 3.48162,2.02503 v 4.18502 4.18503 l -3.30729,1.94801 -3.3073,1.94801 -0.19843,0.0109 -0.19844,0.0109 z m -19.902531,-15.59905 -3.101489,-1.87384 0.191072,-0.18303 0.191071,-0.18303 7.230655,-4.13744 7.230655,-4.13745 0.611709,-0.27871 0.611708,-0.27872 3.06471,1.8152 3.06471,1.8152 0.007,0.16848 0.007,0.16848 -7.871356,4.43669 -7.871354,4.43669 -0.132292,0.0527 -0.132291,0.0527 z"
         id="path11" /><path
         style="fill:#4677be"
         d="m 104.86771,169.44803 v -3.72245 l 4.16719,-2.48601 4.16718,-2.48601 0.0693,-9.62921 0.0693,-9.62922 -0.59851,-0.3763 -0.5985,-0.3763 -2.70799,-1.64462 -2.708,-1.64463 0.32675,-0.2597 0.32674,-0.2597 2.81729,-1.58727 2.81728,-1.58727 3.45471,2.01632 3.45471,2.01632 0.0119,13.25816 0.0119,13.25816 -7.12279,4.27075 -7.12278,4.27074 -0.41784,0.16034 -0.41784,0.16034 z m -0.0522,-9.268 -0.0801,-3.67341 3.42066,-1.94899 3.42066,-1.94898 0.21736,-0.0882 0.21736,-0.0882 v 3.68001 3.68002 l -3.42932,2.03057 -3.42931,2.03058 h -0.12862 -0.12861 z m 16.45636,-14.38602 v -9.0636 l -4.00121,-2.33585 -4.00121,-2.33586 -0.43056,0.11925 -0.43056,0.11925 -8.03586,4.62982 -8.035867,4.62981 -3.032394,-1.80153 -3.032394,-1.80154 -0.308824,-0.11081 -0.308824,-0.11082 0.132291,-0.12505 0.132292,-0.12505 11.37571,-6.45961 11.3757,-6.45961 h 0.27789 0.27789 l 7.32533,4.23334 7.32533,4.23333 0.005,9.16567 0.005,9.16566 -3.16238,1.7484 -3.16237,1.74839 h -0.14492 -0.14492 z m -16.40416,4.72009 v -4.07891 l -3.46107,-2.11457 -3.461075,-2.11457 1.807426,-1.04267 1.807429,-1.04266 1.67776,-0.93279 1.67776,-0.93279 3.48161,2.02467 3.48162,2.02468 0.0727,4.12905 0.0727,4.12906 -3.43422,2.01521 -3.43423,2.01521 h -0.14421 -0.14421 z m -19.902531,-15.59905 -3.101489,-1.87384 0.191072,-0.18303 0.191071,-0.18303 7.230655,-4.13744 7.230655,-4.13745 0.611709,-0.27871 0.611708,-0.27872 3.06471,1.8152 3.06471,1.8152 0.007,0.16848 0.007,0.16848 -7.871356,4.43669 -7.871354,4.43669 -0.132292,0.0527 -0.132291,0.0527 z"
         id="path10" /><path
         style="fill:#4f73b8"
         d="m 104.86771,169.44803 v -3.72245 l 4.16719,-2.48601 4.16718,-2.48601 0.0693,-9.62921 0.0693,-9.62922 -0.59851,-0.3763 -0.5985,-0.3763 -2.70799,-1.64462 -2.708,-1.64463 0.32675,-0.2597 0.32674,-0.2597 2.81729,-1.58727 2.81728,-1.58727 3.45471,2.01632 3.45471,2.01632 0.0119,13.25816 0.0119,13.25816 -7.12279,4.27075 -7.12278,4.27074 -0.41784,0.16034 -0.41784,0.16034 z m 0.0589,-9.33063 0.0734,-3.73604 3.39707,-1.9525 3.39708,-1.95251 h 0.10865 0.10866 v 3.65797 3.65797 l -3.42932,2.03057 -3.42931,2.03058 h -0.14983 -0.14982 z m 16.34528,-14.32339 v -9.0636 l -4.00121,-2.33585 -4.00121,-2.33586 -0.43056,0.11925 -0.43056,0.11925 -8.04341,4.63416 -8.04342,4.63416 -2.672208,-1.59214 -2.672209,-1.59214 -0.620428,-0.38333 -0.620429,-0.38333 11.586414,-6.59677 11.58641,-6.59677 0.17388,0.0709 0.17387,0.0709 7.3099,4.23334 7.3099,4.23333 0.005,9.16567 0.005,9.16566 -3.16238,1.7484 -3.16237,1.74839 h -0.14492 -0.14492 z m -16.40416,4.72009 v -4.07891 l -3.46107,-2.11457 -3.461075,-2.11457 1.807426,-1.04267 1.807429,-1.04266 1.67776,-0.93279 1.67776,-0.93279 3.48161,2.02467 3.48162,2.02468 0.0727,4.12905 0.0727,4.12906 -3.43422,2.01521 -3.43423,2.01521 h -0.14421 -0.14421 z m -19.902531,-15.59905 -3.101489,-1.87384 0.191072,-0.18303 0.191071,-0.18303 7.230655,-4.13744 7.230655,-4.13745 0.611709,-0.27871 0.611708,-0.27872 3.06471,1.8152 3.06471,1.8152 0.007,0.16848 0.007,0.16848 -7.871356,4.43669 -7.871354,4.43669 -0.132292,0.0527 -0.132291,0.0527 z"
         id="path9" /><path
         style="fill:#546aaf"
         d="m 105.13229,169.35159 v -3.7935 l 4.0349,-2.39988 4.03489,-2.39988 0.0693,-9.6316 0.0693,-9.6316 -0.59851,-0.3763 -0.5985,-0.3763 -2.72829,-1.65693 -2.72828,-1.65693 0.61162,-0.38348 0.61162,-0.38348 2.54712,-1.45449 2.54711,-1.45448 3.4603,2.01962 3.46029,2.01962 0.0119,13.25816 0.0119,13.25816 -7.2099,4.30947 -7.20989,4.30948 -0.19844,0.10892 -0.19844,0.10891 z m -0.2057,-9.23419 0.0734,-3.73604 3.39707,-1.9525 3.39708,-1.95251 h 0.10865 0.10866 v 3.65797 3.65797 l -3.42932,2.03057 -3.42931,2.03058 h -0.14983 -0.14982 z m 16.34528,-14.32339 v -9.0636 l -3.96289,-2.31348 -3.96289,-2.31349 h -0.28637 -0.28637 l -8.04914,4.63021 -8.049137,4.6302 H 96.44137 96.207666 l -3.210765,-1.88511 -3.210765,-1.88511 11.560624,-6.58657 11.56063,-6.58658 0.17923,0.0712 0.17924,0.0712 7.30075,4.23334 7.30076,4.23333 0.01,9.16567 0.01,9.16566 -3.16238,1.7484 -3.16237,1.74839 h -0.14492 -0.14492 z m -16.41286,4.63182 -0.009,-4.16718 -3.2986,-1.9669 -3.298595,-1.96689 v -0.16992 -0.16991 l 3.331585,-1.86484 3.33159,-1.86484 3.48144,2.02457 3.48143,2.02457 0.0727,4.12905 0.0727,4.12906 -3.43422,2.01521 -3.43423,2.01521 h -0.14421 -0.14421 z m -20.048323,-15.68127 -2.991397,-1.80768 1.139314,-0.65709 1.139313,-0.65709 6.289372,-3.60428 6.289373,-3.60427 0.626949,-0.28566 0.626949,-0.28566 3.06471,1.8152 3.06471,1.8152 0.007,0.16848 0.007,0.16848 -7.771928,4.39558 -7.771927,4.39558 -0.364011,-0.0246 -0.364011,-0.0246 z"
         id="path8" /><path
         style="fill:#4968b1"
         d="M 105.13229,169.34904 V 165.553 l 4.0349,-2.38627 4.03489,-2.38627 0.0693,-9.64266 0.0693,-9.64267 -0.59851,-0.3763 -0.5985,-0.3763 -2.72829,-1.65693 -2.72828,-1.65693 0.61162,-0.38348 0.61162,-0.38348 2.54712,-1.45449 2.54711,-1.45448 3.4603,2.01962 3.46029,2.01962 0.0119,13.25816 0.0119,13.25816 -7.2099,4.30947 -7.20989,4.30948 -0.19844,0.10892 -0.19844,0.10891 z m -0.2057,-9.23164 0.0734,-3.73604 3.39707,-1.9525 3.39708,-1.95251 h 0.10865 0.10866 v 3.6647 3.6647 l -3.45746,2.02384 -3.45747,2.02385 h -0.12167 -0.12168 z m 16.34528,-14.31143 v -9.09573 l -3.96503,-2.3034 -3.96503,-2.3034 h -0.28294 -0.28294 l -8.08348,4.64415 -8.08347,4.64416 -0.303938,-0.0801 -0.303939,-0.0801 -2.970513,-1.71979 -2.970513,-1.71979 -0.0045,-0.17028 -0.0045,-0.17027 7.342187,-4.16976 7.342196,-4.16975 4.07412,-2.34967 4.07413,-2.34967 0.1911,0.0751 0.19109,0.0751 7.30075,4.23334 7.30076,4.23333 0.01,9.18353 0.01,9.18353 -3.09978,1.66439 -3.09977,1.66438 -0.20752,0.0882 -0.20752,0.0882 z m -16.41286,4.61986 -0.009,-4.16718 -3.2986,-1.9669 -3.298595,-1.96689 v -0.16992 -0.16991 l 3.331585,-1.86484 3.33159,-1.86484 3.48144,2.02457 3.48143,2.02457 0.0727,4.12231 0.0727,4.12231 -3.43975,2.02196 -3.43976,2.02195 h -0.13865 -0.13864 z m -20.048323,-15.68127 -2.991397,-1.80768 1.139314,-0.65059 1.139313,-0.65059 6.275218,-3.60433 6.275218,-3.60432 0.631933,-0.28793 0.631934,-0.28793 2.949,1.77082 2.949,1.77082 0.12726,0.20592 0.12726,0.20591 -7.765757,4.39835 -7.765762,4.39834 -0.365569,-0.0246 -0.365569,-0.0246 z"
         id="path7" /><path
         style="fill:#4867b0"
         d="M 105.13229,169.34904 V 165.553 l 4.0349,-2.38627 4.03489,-2.38627 0.0694,-9.66994 0.0694,-9.66995 -3.17822,-1.92685 -3.17822,-1.92684 v -0.19414 -0.19413 l 2.87108,-1.62155 2.87109,-1.62154 h 0.31569 0.3157 l 3.28309,1.91823 3.28309,1.91823 0.0124,13.25816 0.0124,13.25816 -7.2099,4.30947 -7.20989,4.30948 -0.19844,0.10892 -0.19844,0.10891 z m -0.2057,-9.23164 0.0734,-3.73604 3.39707,-1.9525 3.39708,-1.95251 h 0.10865 0.10866 v 3.6647 3.6647 l -3.45746,2.02384 -3.45747,2.02385 h -0.12167 -0.12168 z m 16.40474,-14.47083 0.0728,-9.25959 -0.16556,0.10248 -0.16556,0.10248 -3.84158,-2.24425 -3.84158,-2.24425 h -0.29643 -0.29642 l -5.48602,3.13441 -5.48602,3.13442 -2.614766,1.51064 -2.614766,1.51064 -0.363512,-0.1395 -0.363513,-0.13949 -2.44568,-1.44501 -2.44568,-1.44502 -0.484957,-0.36106 -0.484957,-0.36106 11.291391,-6.43716 11.29139,-6.43716 0.30607,-0.0326 0.30606,-0.0326 7.33148,4.23334 7.33148,4.23333 0.0107,9.18353 0.0107,9.18353 -3.09978,1.66439 -3.09977,1.66438 -0.21421,0.0904 -0.21421,0.0904 z m -16.46362,4.76191 v -4.18453 l -3.30228,-1.96703 -3.302273,-1.96702 -0.005,-0.14458 -0.005,-0.14457 3.341213,-1.87558 3.34121,-1.87557 3.47181,2.05605 3.47181,2.05605 0.0727,4.09371 0.0727,4.0937 -3.43975,2.02196 -3.43976,2.02195 h -0.13865 -0.13864 z m -19.777557,-15.60296 -2.976514,-1.77604 0.0043,-0.13229 0.0043,-0.13229 7.737939,-4.43177 7.737939,-4.43178 h 0.180241 0.18024 l 2.926382,1.74664 2.92638,1.74664 0.12404,0.2007 0.12404,0.2007 -7.776399,4.40266 -7.776401,4.40266 -0.219971,-0.01 -0.219971,-0.01 z"
         id="path6" /><path
         style="fill:#4162ae"
         d="m 105.13229,169.35491 v -3.79018 l 4.0349,-2.38955 4.03489,-2.38954 v -9.79914 -9.79914 l 0.26459,-0.0128 0.26458,-0.0128 2.77813,-1.51943 2.77812,-1.51944 0.11298,-0.10203 0.11297,-0.10203 -0.50985,-0.39844 -0.50985,-0.39844 0.7276,0.31135 0.72761,0.31136 v 13.28183 13.28184 l -7.2099,4.30947 -7.20989,4.30948 -0.19844,0.10892 -0.19844,0.10891 z m -0.2057,-9.23751 0.0734,-3.73604 3.39707,-1.9525 3.39708,-1.95251 h 0.10865 0.10866 v 3.6647 3.6647 l -3.45746,2.02384 -3.45747,2.02385 h -0.12167 -0.12168 z m 16.34528,-14.27056 v -9.05486 l -0.46302,-0.37449 -0.46302,-0.37449 0.59462,0.28811 0.59462,0.28812 3.05095,-1.69145 3.05095,-1.69144 -0.60286,-0.43203 -0.60286,-0.43202 0.7276,0.30492 0.72761,0.30492 v 9.2072 9.20721 l -3.09978,1.66439 -3.09977,1.66438 -0.20752,0.0882 -0.20752,0.0882 z m -16.40416,4.65524 v -4.09094 l 3.24114,-1.90546 3.24115,-1.90546 0.0887,-0.22296 0.0888,-0.22295 0.24198,0.14955 0.24199,0.14956 v 4.05168 4.05168 l -3.43323,2.01812 -3.43323,2.01812 h -0.13865 -0.13864 z"
         id="path5" /><path
         style="fill:#3b5eac"
         d="m 105.13433,169.37397 0.002,-3.80074 4.03285,-2.39503 4.03286,-2.39502 0.0694,-9.70065 0.0694,-9.70066 3.09652,-1.66265 3.09652,-1.66266 0.20752,-0.0882 0.20752,-0.0882 v 13.21172 13.21172 l -6.81302,4.05633 -6.81302,4.05633 -0.59532,0.37922 -0.59531,0.37922 z m -0.20774,-9.25713 0.0734,-3.7366 1.7929,-1.01685 1.7929,-1.01684 1.71283,-0.95787 1.71283,-0.95787 v 3.66929 3.66929 l -3.4439,2.04202 -3.44391,2.04203 h -0.13523 -0.13524 z m 16.35165,-14.29806 0.006,-9.08513 2.9431,-1.57931 2.94311,-1.5793 0.36123,-0.36123 0.36124,-0.36124 -0.0696,9.30982 -0.0695,9.30983 -3.24115,1.71585 -3.24115,1.71585 z m -16.41053,4.70342 v -4.07082 l 3.30729,-1.93349 3.30729,-1.93349 v -0.22901 -0.22902 l 0.26459,0.16353 0.26458,0.16352 v 4.05168 4.05168 l -3.43323,2.01812 -3.43323,2.01812 h -0.13865 -0.13864 z"
         id="path4" /><path
         style="fill:#385cab"
         d="m 105.13994,169.37397 0.008,-3.80074 4.02725,-2.39364 4.02724,-2.39364 0.13229,-9.72419 0.1323,-9.72418 3.24114,-1.72249 3.24115,-1.72248 v 13.19569 13.19569 l -6.81302,4.06857 -6.81302,4.06857 -0.59532,0.37679 -0.59531,0.37679 z m -0.27223,-9.18056 v -3.70413 l 2.97656,-1.70304 2.97656,-1.70304 0.59532,-0.31273 0.59531,-0.31273 v 3.65603 3.65604 l -3.34366,1.97567 -3.34367,1.97567 -0.22821,0.0882 -0.22821,0.0882 z m 16.40416,-14.44048 v -9.15158 h 0.23427 0.23426 l 3.00688,-1.68261 3.00689,-1.68262 0.0697,9.00804 0.0697,9.00805 -0.20197,0.18808 -0.20197,0.18808 -3.10885,1.63807 -3.10886,1.63807 z m -16.40416,4.80243 v -4.03766 l 2.44739,-1.43627 2.4474,-1.43627 1.12448,-0.6341 1.12448,-0.63411 v 4.09657 4.09657 l -3.46153,2.01147 -3.46153,2.01146 h -0.11034 -0.11035 z"
         id="path3" /><path
         style="fill:#3a56a6"
         d="m 105.13994,169.37397 0.008,-3.80074 4.02725,-2.39371 4.02724,-2.39371 0.0694,-9.67583 0.0694,-9.67584 1.65042,-0.86644 1.65043,-0.86645 1.65364,-0.91126 1.65365,-0.91126 v 13.19351 13.19351 l -6.81302,4.0771 -6.81302,4.07709 -0.59532,0.37739 -0.59531,0.37738 z m -0.27223,-9.18056 v -3.70413 l 2.97656,-1.70304 2.97656,-1.70304 0.59532,-0.31273 0.59531,-0.31273 v 3.65603 3.65604 l -3.34366,1.97567 -3.34367,1.97567 -0.22821,0.0882 -0.22821,0.0882 z m 16.46681,-14.33193 0.0696,-9.04134 3.24455,-1.81361 3.24456,-1.81361 -0.0696,9.13138 -0.0695,9.13139 -3.24465,1.72356 -3.24464,1.72357 z m -16.46681,4.69077 v -4.04078 l 2.71198,-1.56921 2.71198,-1.5692 0.85989,-0.50157 0.8599,-0.50157 v 4.08771 4.0877 l -3.45746,2.02385 -3.45747,2.02384 h -0.11441 -0.11441 z"
         id="path2" /><path
         style="fill:#3853a4"
         d="m 105.13698,169.37397 0.005,-3.80074 4.08418,-2.38125 4.08418,-2.38125 0.0122,-9.67072 0.0122,-9.67071 1.12448,-0.56871 1.12448,-0.5687 2.18282,-1.18959 2.18281,-1.18959 v 13.15652 13.15652 l -6.81302,4.0771 -6.81302,4.07709 -0.59532,0.37739 -0.59531,0.37738 z m -0.26927,-9.18056 v -3.70413 l 2.97656,-1.70304 2.97656,-1.70304 0.59532,-0.31273 0.59531,-0.31273 v 3.65822 3.65822 l -3.35932,1.97348 -3.35931,1.97349 -0.21256,0.0882 -0.21256,0.0882 z m 16.40416,-14.29438 v -8.99024 l 2.31511,-1.25644 2.3151,-1.25644 0.99563,-0.62256 0.99562,-0.62255 -0.0696,9.14669 -0.0696,9.14669 -3.24115,1.72254 -3.24115,1.72255 z m -16.34504,4.69353 0.0732,-4.04924 2.64583,-1.55937 2.64584,-1.55938 0.85989,-0.52277 0.8599,-0.52277 v 4.09027 4.09027 l -3.36206,1.95058 -3.36205,1.95058 -0.21685,0.0905 -0.21684,0.0905 z"
         id="path1" /></g></g></svg>
